  0
SECTION
  2
BLOCKS
  0
ENDSEC
  0
SECTION
  2
ENTITIES
  0
LINE
  8
0
 10
31.2445
 20
809.87
 11
49.6675
 21
809.87
  0
LINE
  8
0
 10
49.6675
 20
809.87
 11
49.6675
 21
806.893
  0
LINE
  8
0
 10
49.6675
 20
806.893
 11
68.5505
 21
806.893
  0
LINE
  8
0
 10
68.5505
 20
806.893
 11
68.5505
 21
809.87
  0
LINE
  8
0
 10
68.5505
 20
809.87
 11
86.9735
 21
809.87
  0
LINE
  8
0
 10
86.9735
 20
809.87
 11
86.9735
 21
806.893
  0
LINE
  8
0
 10
86.9735
 20
806.893
 11
105.856
 21
806.893
  0
LINE
  8
0
 10
105.856
 20
806.893
 11
105.856
 21
809.87
  0
LINE
  8
0
 10
105.856
 20
809.87
 11
124.279
 21
809.87
  0
LINE
  8
0
 10
124.279
 20
809.87
 11
124.279
 21
806.893
  0
LINE
  8
0
 10
124.279
 20
806.893
 11
143.163
 21
806.893
  0
LINE
  8
0
 10
143.163
 20
806.893
 11
143.163
 21
809.87
  0
LINE
  8
0
 10
143.163
 20
809.87
 11
161.585
 21
809.87
  0
LINE
  8
0
 10
161.585
 20
809.87
 11
161.585
 21
806.893
  0
LINE
  8
0
 10
161.585
 20
806.893
 11
180.469
 21
806.893
  0
LINE
  8
0
 10
180.469
 20
806.893
 11
180.469
 21
809.87
  0
LINE
  8
0
 10
180.469
 20
809.87
 11
189.68
 21
809.87
  0
LINE
  8
0
 10
189.68
 20
809.87
 11
189.68
 21
816.932
  0
LINE
  8
0
 10
189.68
 20
816.932
 11
192.773
 21
816.932
  0
LINE
  8
0
 10
192.773
 20
816.932
 11
192.773
 21
837.815
  0
LINE
  8
0
 10
192.773
 20
837.815
 11
189.68
 21
837.815
  0
LINE
  8
0
 10
189.68
 20
837.815
 11
189.68
 21
858.237
  0
LINE
  8
0
 10
189.68
 20
858.237
 11
192.773
 21
858.237
  0
LINE
  8
0
 10
192.773
 20
858.237
 11
192.773
 21
879.12
  0
LINE
  8
0
 10
192.773
 20
879.12
 11
189.68
 21
879.12
  0
LINE
  8
0
 10
189.68
 20
879.12
 11
189.68
 21
899.544
  0
LINE
  8
0
 10
189.68
 20
899.544
 11
192.773
 21
899.544
  0
LINE
  8
0
 10
192.773
 20
899.544
 11
192.773
 21
920.427
  0
LINE
  8
0
 10
192.773
 20
920.427
 11
189.68
 21
920.427
  0
LINE
  8
0
 10
189.68
 20
920.427
 11
189.68
 21
940.849
  0
LINE
  8
0
 10
189.68
 20
940.849
 11
192.773
 21
940.849
  0
LINE
  8
0
 10
192.773
 20
940.849
 11
192.773
 21
961.732
  0
LINE
  8
0
 10
192.773
 20
961.732
 11
189.68
 21
961.732
  0
LINE
  8
0
 10
189.68
 20
961.732
 11
189.68
 21
982.156
  0
LINE
  8
0
 10
189.68
 20
982.156
 11
192.773
 21
982.156
  0
LINE
  8
0
 10
192.773
 20
982.156
 11
192.773
 21
1003.04
  0
LINE
  8
0
 10
192.773
 20
1003.04
 11
189.68
 21
1003.04
  0
LINE
  8
0
 10
189.68
 20
1003.04
 11
189.68
 21
1010.1
  0
LINE
  8
0
 10
189.68
 20
1010.1
 11
180.469
 21
1010.1
  0
LINE
  8
0
 10
180.469
 20
1010.1
 11
180.469
 21
1013.19
  0
LINE
  8
0
 10
180.469
 20
1013.19
 11
161.585
 21
1013.19
  0
LINE
  8
0
 10
161.585
 20
1013.19
 11
161.585
 21
1010.1
  0
LINE
  8
0
 10
161.585
 20
1010.1
 11
143.163
 21
1010.1
  0
LINE
  8
0
 10
143.163
 20
1010.1
 11
143.163
 21
1013.19
  0
LINE
  8
0
 10
143.163
 20
1013.19
 11
124.279
 21
1013.19
  0
LINE
  8
0
 10
124.279
 20
1013.19
 11
124.279
 21
1010.1
  0
LINE
  8
0
 10
124.279
 20
1010.1
 11
105.856
 21
1010.1
  0
LINE
  8
0
 10
105.856
 20
1010.1
 11
105.856
 21
1013.19
  0
LINE
  8
0
 10
105.856
 20
1013.19
 11
86.9735
 21
1013.19
  0
LINE
  8
0
 10
86.9735
 20
1013.19
 11
86.9735
 21
1010.1
  0
LINE
  8
0
 10
86.9735
 20
1010.1
 11
68.5505
 21
1010.1
  0
LINE
  8
0
 10
68.5505
 20
1010.1
 11
68.5505
 21
1013.19
  0
LINE
  8
0
 10
68.5505
 20
1013.19
 11
49.6675
 21
1013.19
  0
LINE
  8
0
 10
49.6675
 20
1013.19
 11
49.6675
 21
1010.1
  0
LINE
  8
0
 10
49.6675
 20
1010.1
 11
31.2445
 21
1010.1
  0
LINE
  8
0
 10
31.2445
 20
1010.1
 11
31.2445
 21
1013.19
  0
LINE
  8
0
 10
31.2445
 20
1013.19
 11
12.3615
 21
1013.19
  0
LINE
  8
0
 10
12.3615
 20
1013.19
 11
12.3615
 21
1010.1
  0
LINE
  8
0
 10
12.3615
 20
1010.1
 11
3.14999
 21
1010.1
  0
LINE
  8
0
 10
3.14999
 20
1010.1
 11
3.14999
 21
1003.04
  0
LINE
  8
0
 10
3.14999
 20
1003.04
 11
0.0574951
 21
1003.04
  0
LINE
  8
0
 10
0.0574951
 20
1003.04
 11
0.0574951
 21
982.156
  0
LINE
  8
0
 10
0.0574951
 20
982.156
 11
3.14999
 21
982.156
  0
LINE
  8
0
 10
3.14999
 20
982.156
 11
3.14999
 21
961.732
  0
LINE
  8
0
 10
3.14999
 20
961.732
 11
0.0574951
 21
961.732
  0
LINE
  8
0
 10
0.0574951
 20
961.732
 11
0.0574951
 21
940.849
  0
LINE
  8
0
 10
0.0574951
 20
940.849
 11
3.14999
 21
940.849
  0
LINE
  8
0
 10
3.14999
 20
940.849
 11
3.14999
 21
920.427
  0
LINE
  8
0
 10
3.14999
 20
920.427
 11
0.0574951
 21
920.427
  0
LINE
  8
0
 10
0.0574951
 20
920.427
 11
0.0574951
 21
899.544
  0
LINE
  8
0
 10
0.0574951
 20
899.544
 11
3.14999
 21
899.544
  0
LINE
  8
0
 10
3.14999
 20
899.544
 11
3.14999
 21
879.12
  0
LINE
  8
0
 10
3.14999
 20
879.12
 11
0.0574951
 21
879.12
  0
LINE
  8
0
 10
0.0574951
 20
879.12
 11
0.0574951
 21
858.237
  0
LINE
  8
0
 10
0.0574951
 20
858.237
 11
3.14999
 21
858.237
  0
LINE
  8
0
 10
3.14999
 20
858.237
 11
3.14999
 21
837.815
  0
LINE
  8
0
 10
3.14999
 20
837.815
 11
0.0574951
 21
837.815
  0
LINE
  8
0
 10
0.0574951
 20
837.815
 11
0.0574951
 21
816.932
  0
LINE
  8
0
 10
0.0574951
 20
816.932
 11
3.14999
 21
816.932
  0
LINE
  8
0
 10
3.14999
 20
816.932
 11
3.14999
 21
809.87
  0
LINE
  8
0
 10
3.14999
 20
809.87
 11
12.3615
 21
809.87
  0
LINE
  8
0
 10
12.3615
 20
809.87
 11
12.3615
 21
806.893
  0
LINE
  8
0
 10
12.3615
 20
806.893
 11
31.2445
 21
806.893
  0
LINE
  8
0
 10
31.2445
 20
806.893
 11
31.2445
 21
809.87
  0
LINE
  8
0
 10
229.225
 20
809.87
 11
247.648
 21
809.87
  0
LINE
  8
0
 10
247.648
 20
809.87
 11
247.648
 21
806.893
  0
LINE
  8
0
 10
247.648
 20
806.893
 11
266.53
 21
806.893
  0
LINE
  8
0
 10
266.53
 20
806.893
 11
266.53
 21
809.87
  0
LINE
  8
0
 10
266.53
 20
809.87
 11
284.953
 21
809.87
  0
LINE
  8
0
 10
284.953
 20
809.87
 11
284.953
 21
806.893
  0
LINE
  8
0
 10
284.953
 20
806.893
 11
303.836
 21
806.893
  0
LINE
  8
0
 10
303.836
 20
806.893
 11
303.836
 21
809.87
  0
LINE
  8
0
 10
303.836
 20
809.87
 11
322.259
 21
809.87
  0
LINE
  8
0
 10
322.259
 20
809.87
 11
322.259
 21
806.893
  0
LINE
  8
0
 10
322.259
 20
806.893
 11
341.142
 21
806.893
  0
LINE
  8
0
 10
341.142
 20
806.893
 11
341.142
 21
809.87
  0
LINE
  8
0
 10
341.142
 20
809.87
 11
359.565
 21
809.87
  0
LINE
  8
0
 10
359.565
 20
809.87
 11
359.565
 21
806.893
  0
LINE
  8
0
 10
359.565
 20
806.893
 11
378.448
 21
806.893
  0
LINE
  8
0
 10
378.448
 20
806.893
 11
378.448
 21
809.87
  0
LINE
  8
0
 10
378.448
 20
809.87
 11
387.66
 21
809.87
  0
LINE
  8
0
 10
387.66
 20
809.87
 11
387.66
 21
816.932
  0
LINE
  8
0
 10
387.66
 20
816.932
 11
390.753
 21
816.932
  0
LINE
  8
0
 10
390.753
 20
816.932
 11
390.753
 21
837.815
  0
LINE
  8
0
 10
390.753
 20
837.815
 11
387.66
 21
837.815
  0
LINE
  8
0
 10
387.66
 20
837.815
 11
387.66
 21
858.237
  0
LINE
  8
0
 10
387.66
 20
858.237
 11
390.753
 21
858.237
  0
LINE
  8
0
 10
390.753
 20
858.237
 11
390.753
 21
879.12
  0
LINE
  8
0
 10
390.753
 20
879.12
 11
387.66
 21
879.12
  0
LINE
  8
0
 10
387.66
 20
879.12
 11
387.66
 21
899.544
  0
LINE
  8
0
 10
387.66
 20
899.544
 11
390.753
 21
899.544
  0
LINE
  8
0
 10
390.753
 20
899.544
 11
390.753
 21
920.427
  0
LINE
  8
0
 10
390.753
 20
920.427
 11
387.66
 21
920.427
  0
LINE
  8
0
 10
387.66
 20
920.427
 11
387.66
 21
940.849
  0
LINE
  8
0
 10
387.66
 20
940.849
 11
390.753
 21
940.849
  0
LINE
  8
0
 10
390.753
 20
940.849
 11
390.753
 21
961.732
  0
LINE
  8
0
 10
390.753
 20
961.732
 11
387.66
 21
961.732
  0
LINE
  8
0
 10
387.66
 20
961.732
 11
387.66
 21
982.156
  0
LINE
  8
0
 10
387.66
 20
982.156
 11
390.753
 21
982.156
  0
LINE
  8
0
 10
390.753
 20
982.156
 11
390.753
 21
1003.04
  0
LINE
  8
0
 10
390.753
 20
1003.04
 11
387.66
 21
1003.04
  0
LINE
  8
0
 10
387.66
 20
1003.04
 11
387.66
 21
1010.1
  0
LINE
  8
0
 10
387.66
 20
1010.1
 11
378.448
 21
1010.1
  0
LINE
  8
0
 10
378.448
 20
1010.1
 11
378.448
 21
1013.19
  0
LINE
  8
0
 10
378.448
 20
1013.19
 11
359.565
 21
1013.19
  0
LINE
  8
0
 10
359.565
 20
1013.19
 11
359.565
 21
1010.1
  0
LINE
  8
0
 10
359.565
 20
1010.1
 11
341.142
 21
1010.1
  0
LINE
  8
0
 10
341.142
 20
1010.1
 11
341.142
 21
1013.19
  0
LINE
  8
0
 10
341.142
 20
1013.19
 11
322.259
 21
1013.19
  0
LINE
  8
0
 10
322.259
 20
1013.19
 11
322.259
 21
1010.1
  0
LINE
  8
0
 10
322.259
 20
1010.1
 11
303.836
 21
1010.1
  0
LINE
  8
0
 10
303.836
 20
1010.1
 11
303.836
 21
1013.19
  0
LINE
  8
0
 10
303.836
 20
1013.19
 11
284.953
 21
1013.19
  0
LINE
  8
0
 10
284.953
 20
1013.19
 11
284.953
 21
1010.1
  0
LINE
  8
0
 10
284.953
 20
1010.1
 11
266.53
 21
1010.1
  0
LINE
  8
0
 10
266.53
 20
1010.1
 11
266.53
 21
1013.19
  0
LINE
  8
0
 10
266.53
 20
1013.19
 11
247.648
 21
1013.19
  0
LINE
  8
0
 10
247.648
 20
1013.19
 11
247.648
 21
1010.1
  0
LINE
  8
0
 10
247.648
 20
1010.1
 11
229.225
 21
1010.1
  0
LINE
  8
0
 10
229.225
 20
1010.1
 11
229.225
 21
1013.19
  0
LINE
  8
0
 10
229.225
 20
1013.19
 11
210.341
 21
1013.19
  0
LINE
  8
0
 10
210.341
 20
1013.19
 11
210.341
 21
1010.1
  0
LINE
  8
0
 10
210.341
 20
1010.1
 11
201.13
 21
1010.1
  0
LINE
  8
0
 10
201.13
 20
1010.1
 11
201.13
 21
1003.04
  0
LINE
  8
0
 10
201.13
 20
1003.04
 11
198.038
 21
1003.04
  0
LINE
  8
0
 10
198.038
 20
1003.04
 11
198.038
 21
982.156
  0
LINE
  8
0
 10
198.038
 20
982.156
 11
201.13
 21
982.156
  0
LINE
  8
0
 10
201.13
 20
982.156
 11
201.13
 21
961.732
  0
LINE
  8
0
 10
201.13
 20
961.732
 11
198.038
 21
961.732
  0
LINE
  8
0
 10
198.038
 20
961.732
 11
198.038
 21
940.849
  0
LINE
  8
0
 10
198.038
 20
940.849
 11
201.13
 21
940.849
  0
LINE
  8
0
 10
201.13
 20
940.849
 11
201.13
 21
920.427
  0
LINE
  8
0
 10
201.13
 20
920.427
 11
198.038
 21
920.427
  0
LINE
  8
0
 10
198.038
 20
920.427
 11
198.038
 21
899.544
  0
LINE
  8
0
 10
198.038
 20
899.544
 11
201.13
 21
899.544
  0
LINE
  8
0
 10
201.13
 20
899.544
 11
201.13
 21
879.12
  0
LINE
  8
0
 10
201.13
 20
879.12
 11
198.038
 21
879.12
  0
LINE
  8
0
 10
198.038
 20
879.12
 11
198.038
 21
858.237
  0
LINE
  8
0
 10
198.038
 20
858.237
 11
201.13
 21
858.237
  0
LINE
  8
0
 10
201.13
 20
858.237
 11
201.13
 21
837.815
  0
LINE
  8
0
 10
201.13
 20
837.815
 11
198.038
 21
837.815
  0
LINE
  8
0
 10
198.038
 20
837.815
 11
198.038
 21
816.932
  0
LINE
  8
0
 10
198.038
 20
816.932
 11
201.13
 21
816.932
  0
LINE
  8
0
 10
201.13
 20
816.932
 11
201.13
 21
809.87
  0
LINE
  8
0
 10
201.13
 20
809.87
 11
210.341
 21
809.87
  0
LINE
  8
0
 10
210.341
 20
809.87
 11
210.341
 21
806.893
  0
LINE
  8
0
 10
210.341
 20
806.893
 11
229.225
 21
806.893
  0
LINE
  8
0
 10
229.225
 20
806.893
 11
229.225
 21
809.87
  0
LINE
  8
0
 10
308.901
 20
899.14
 11
308.901
 21
908.877
  0
LINE
  8
0
 10
308.901
 20
908.877
 11
279.508
 21
908.877
  0
LINE
  8
0
 10
279.508
 20
908.877
 11
285.659
 21
900.252
  0
LINE
  8
0
 10
285.659
 20
900.252
 11
281.047
 21
900.252
  0
LINE
  8
0
 10
281.047
 20
900.252
 11
274.843
 21
909.284
  0
LINE
  8
0
 10
274.843
 20
909.284
 11
274.843
 21
913.787
  0
LINE
  8
0
 10
274.843
 20
913.787
 11
308.901
 21
913.787
  0
LINE
  8
0
 10
308.901
 20
913.787
 11
308.901
 21
923.091
  0
LINE
  8
0
 10
308.901
 20
923.091
 11
313.051
 21
923.091
  0
LINE
  8
0
 10
313.051
 20
923.091
 11
313.051
 21
899.14
  0
LINE
  8
0
 10
313.051
 20
899.14
 11
308.901
 21
899.14
  0
LINE
  8
0
 10
28.8522
 20
613.89
 11
47.7803
 21
613.89
  0
LINE
  8
0
 10
47.7803
 20
613.89
 11
47.7803
 21
610.797
  0
LINE
  8
0
 10
47.7803
 20
610.797
 11
67.1684
 21
610.797
  0
LINE
  8
0
 10
67.1684
 20
610.797
 11
67.1684
 21
613.89
  0
LINE
  8
0
 10
67.1684
 20
613.89
 11
86.0966
 21
613.89
  0
LINE
  8
0
 10
86.0966
 20
613.89
 11
86.0966
 21
610.797
  0
LINE
  8
0
 10
86.0966
 20
610.797
 11
105.485
 21
610.797
  0
LINE
  8
0
 10
105.485
 20
610.797
 11
105.485
 21
613.89
  0
LINE
  8
0
 10
105.485
 20
613.89
 11
124.413
 21
613.89
  0
LINE
  8
0
 10
124.413
 20
613.89
 11
124.413
 21
610.797
  0
LINE
  8
0
 10
124.413
 20
610.797
 11
143.801
 21
610.797
  0
LINE
  8
0
 10
143.801
 20
610.797
 11
143.801
 21
613.89
  0
LINE
  8
0
 10
143.801
 20
613.89
 11
162.729
 21
613.89
  0
LINE
  8
0
 10
162.729
 20
613.89
 11
162.729
 21
610.797
  0
LINE
  8
0
 10
162.729
 20
610.797
 11
182.117
 21
610.797
  0
LINE
  8
0
 10
182.117
 20
610.797
 11
182.117
 21
613.89
  0
LINE
  8
0
 10
182.117
 20
613.89
 11
201.045
 21
613.89
  0
LINE
  8
0
 10
201.045
 20
613.89
 11
201.045
 21
610.797
  0
LINE
  8
0
 10
201.045
 20
610.797
 11
220.433
 21
610.797
  0
LINE
  8
0
 10
220.433
 20
610.797
 11
220.433
 21
613.89
  0
LINE
  8
0
 10
220.433
 20
613.89
 11
239.362
 21
613.89
  0
LINE
  8
0
 10
239.362
 20
613.89
 11
239.362
 21
610.797
  0
LINE
  8
0
 10
239.362
 20
610.797
 11
258.75
 21
610.797
  0
LINE
  8
0
 10
258.75
 20
610.797
 11
258.75
 21
613.89
  0
LINE
  8
0
 10
258.75
 20
613.89
 11
277.678
 21
613.89
  0
LINE
  8
0
 10
277.678
 20
613.89
 11
277.678
 21
610.797
  0
LINE
  8
0
 10
277.678
 20
610.797
 11
297.066
 21
610.797
  0
LINE
  8
0
 10
297.066
 20
610.797
 11
297.066
 21
613.89
  0
LINE
  8
0
 10
297.066
 20
613.89
 11
306.53
 21
613.89
  0
LINE
  8
0
 10
306.53
 20
613.89
 11
306.53
 21
623.331
  0
LINE
  8
0
 10
306.53
 20
623.331
 11
303.552
 21
623.331
  0
LINE
  8
0
 10
303.552
 20
623.331
 11
303.552
 21
641.755
  0
LINE
  8
0
 10
303.552
 20
641.755
 11
306.53
 21
641.755
  0
LINE
  8
0
 10
306.53
 20
641.755
 11
306.53
 21
660.638
  0
LINE
  8
0
 10
306.53
 20
660.638
 11
303.552
 21
660.638
  0
LINE
  8
0
 10
303.552
 20
660.638
 11
303.552
 21
679.06
  0
LINE
  8
0
 10
303.552
 20
679.06
 11
306.53
 21
679.06
  0
LINE
  8
0
 10
306.53
 20
679.06
 11
306.53
 21
697.943
  0
LINE
  8
0
 10
306.53
 20
697.943
 11
303.552
 21
697.943
  0
LINE
  8
0
 10
303.552
 20
697.943
 11
303.552
 21
716.367
  0
LINE
  8
0
 10
303.552
 20
716.367
 11
306.53
 21
716.367
  0
LINE
  8
0
 10
306.53
 20
716.367
 11
306.53
 21
735.25
  0
LINE
  8
0
 10
306.53
 20
735.25
 11
303.552
 21
735.25
  0
LINE
  8
0
 10
303.552
 20
735.25
 11
303.552
 21
753.672
  0
LINE
  8
0
 10
303.552
 20
753.672
 11
306.53
 21
753.672
  0
LINE
  8
0
 10
306.53
 20
753.672
 11
306.53
 21
772.555
  0
LINE
  8
0
 10
306.53
 20
772.555
 11
303.552
 21
772.555
  0
LINE
  8
0
 10
303.552
 20
772.555
 11
303.552
 21
790.979
  0
LINE
  8
0
 10
303.552
 20
790.979
 11
306.53
 21
790.979
  0
LINE
  8
0
 10
306.53
 20
790.979
 11
306.53
 21
800.42
  0
LINE
  8
0
 10
306.53
 20
800.42
 11
297.066
 21
800.42
  0
LINE
  8
0
 10
297.066
 20
800.42
 11
297.066
 21
803.513
  0
LINE
  8
0
 10
297.066
 20
803.513
 11
277.678
 21
803.513
  0
LINE
  8
0
 10
277.678
 20
803.513
 11
277.678
 21
800.42
  0
LINE
  8
0
 10
277.678
 20
800.42
 11
258.75
 21
800.42
  0
LINE
  8
0
 10
258.75
 20
800.42
 11
258.75
 21
803.513
  0
LINE
  8
0
 10
258.75
 20
803.513
 11
239.362
 21
803.513
  0
LINE
  8
0
 10
239.362
 20
803.513
 11
239.362
 21
800.42
  0
LINE
  8
0
 10
239.362
 20
800.42
 11
220.433
 21
800.42
  0
LINE
  8
0
 10
220.433
 20
800.42
 11
220.433
 21
803.513
  0
LINE
  8
0
 10
220.433
 20
803.513
 11
201.045
 21
803.513
  0
LINE
  8
0
 10
201.045
 20
803.513
 11
201.045
 21
800.42
  0
LINE
  8
0
 10
201.045
 20
800.42
 11
182.117
 21
800.42
  0
LINE
  8
0
 10
182.117
 20
800.42
 11
182.117
 21
803.513
  0
LINE
  8
0
 10
182.117
 20
803.513
 11
162.729
 21
803.513
  0
LINE
  8
0
 10
162.729
 20
803.513
 11
162.729
 21
800.42
  0
LINE
  8
0
 10
162.729
 20
800.42
 11
143.801
 21
800.42
  0
LINE
  8
0
 10
143.801
 20
800.42
 11
143.801
 21
803.513
  0
LINE
  8
0
 10
143.801
 20
803.513
 11
124.413
 21
803.513
  0
LINE
  8
0
 10
124.413
 20
803.513
 11
124.413
 21
800.42
  0
LINE
  8
0
 10
124.413
 20
800.42
 11
105.485
 21
800.42
  0
LINE
  8
0
 10
105.485
 20
800.42
 11
105.485
 21
803.513
  0
LINE
  8
0
 10
105.485
 20
803.513
 11
86.0966
 21
803.513
  0
LINE
  8
0
 10
86.0966
 20
803.513
 11
86.0966
 21
800.42
  0
LINE
  8
0
 10
86.0966
 20
800.42
 11
67.1684
 21
800.42
  0
LINE
  8
0
 10
67.1684
 20
800.42
 11
67.1684
 21
803.513
  0
LINE
  8
0
 10
67.1684
 20
803.513
 11
47.7803
 21
803.513
  0
LINE
  8
0
 10
47.7803
 20
803.513
 11
47.7803
 21
800.42
  0
LINE
  8
0
 10
47.7803
 20
800.42
 11
28.8522
 21
800.42
  0
LINE
  8
0
 10
28.8522
 20
800.42
 11
28.8522
 21
803.513
  0
LINE
  8
0
 10
28.8522
 20
803.513
 11
9.46405
 21
803.513
  0
LINE
  8
0
 10
9.46405
 20
803.513
 11
9.46405
 21
800.42
  0
LINE
  8
0
 10
9.46405
 20
800.42
 11
0
 21
800.42
  0
LINE
  8
0
 10
0
 20
800.42
 11
0
 21
790.979
  0
LINE
  8
0
 10
0
 20
790.979
 11
2.97749
 21
790.979
  0
LINE
  8
0
 10
2.97749
 20
790.979
 11
2.97749
 21
772.555
  0
LINE
  8
0
 10
2.97749
 20
772.555
 11
0
 21
772.555
  0
LINE
  8
0
 10
0
 20
772.555
 11
0
 21
753.672
  0
LINE
  8
0
 10
0
 20
753.672
 11
2.97749
 21
753.672
  0
LINE
  8
0
 10
2.97749
 20
753.672
 11
2.97749
 21
735.25
  0
LINE
  8
0
 10
2.97749
 20
735.25
 11
0
 21
735.25
  0
LINE
  8
0
 10
0
 20
735.25
 11
0
 21
716.367
  0
LINE
  8
0
 10
0
 20
716.367
 11
2.97749
 21
716.367
  0
LINE
  8
0
 10
2.97749
 20
716.367
 11
2.97749
 21
697.943
  0
LINE
  8
0
 10
2.97749
 20
697.943
 11
0
 21
697.943
  0
LINE
  8
0
 10
0
 20
697.943
 11
0
 21
679.06
  0
LINE
  8
0
 10
0
 20
679.06
 11
2.97749
 21
679.06
  0
LINE
  8
0
 10
2.97749
 20
679.06
 11
2.97749
 21
660.638
  0
LINE
  8
0
 10
2.97749
 20
660.638
 11
0
 21
660.638
  0
LINE
  8
0
 10
0
 20
660.638
 11
0
 21
641.755
  0
LINE
  8
0
 10
0
 20
641.755
 11
2.97749
 21
641.755
  0
LINE
  8
0
 10
2.97749
 20
641.755
 11
2.97749
 21
623.331
  0
LINE
  8
0
 10
2.97749
 20
623.331
 11
0
 21
623.331
  0
LINE
  8
0
 10
0
 20
623.331
 11
0
 21
613.89
  0
LINE
  8
0
 10
0
 20
613.89
 11
9.46405
 21
613.89
  0
LINE
  8
0
 10
9.46405
 20
613.89
 11
9.46405
 21
610.797
  0
LINE
  8
0
 10
9.46405
 20
610.797
 11
28.8522
 21
610.797
  0
LINE
  8
0
 10
28.8522
 20
610.797
 11
28.8522
 21
613.89
  0
LINE
  8
0
 10
284.287
 20
777.832
 11
283.244
 21
779.455
  0
LINE
  8
0
 10
283.244
 20
779.455
 11
283.244
 21
781.385
  0
LINE
  8
0
 10
283.244
 20
781.385
 11
284.287
 21
783.008
  0
LINE
  8
0
 10
284.287
 20
783.008
 11
286.043
 21
783.81
  0
LINE
  8
0
 10
286.043
 20
783.81
 11
287.953
 21
783.535
  0
LINE
  8
0
 10
287.953
 20
783.535
 11
289.411
 21
782.272
  0
LINE
  8
0
 10
289.411
 20
782.272
 11
289.955
 21
780.42
  0
LINE
  8
0
 10
289.955
 20
780.42
 11
289.411
 21
778.568
  0
LINE
  8
0
 10
289.411
 20
778.568
 11
287.953
 21
777.305
  0
LINE
  8
0
 10
287.953
 20
777.305
 11
286.043
 21
777.03
  0
LINE
  8
0
 10
286.043
 20
777.03
 11
284.287
 21
777.832
  0
LINE
  8
0
 10
17.7571
 20
777.832
 11
16.7137
 21
779.455
  0
LINE
  8
0
 10
16.7137
 20
779.455
 11
16.7137
 21
781.385
  0
LINE
  8
0
 10
16.7137
 20
781.385
 11
17.7571
 21
783.008
  0
LINE
  8
0
 10
17.7571
 20
783.008
 11
19.5126
 21
783.81
  0
LINE
  8
0
 10
19.5126
 20
783.81
 11
21.4228
 21
783.535
  0
LINE
  8
0
 10
21.4228
 20
783.535
 11
22.8813
 21
782.272
  0
LINE
  8
0
 10
22.8813
 20
782.272
 11
23.425
 21
780.42
  0
LINE
  8
0
 10
23.425
 20
780.42
 11
22.8813
 21
778.568
  0
LINE
  8
0
 10
22.8813
 20
778.568
 11
21.4228
 21
777.305
  0
LINE
  8
0
 10
21.4228
 20
777.305
 11
19.5126
 21
777.03
  0
LINE
  8
0
 10
19.5126
 20
777.03
 11
17.7571
 21
777.832
  0
LINE
  8
0
 10
28.8522
 20
420.21
 11
47.7803
 21
420.21
  0
LINE
  8
0
 10
47.7803
 20
420.21
 11
47.7803
 21
417.117
  0
LINE
  8
0
 10
47.7803
 20
417.117
 11
67.1684
 21
417.117
  0
LINE
  8
0
 10
67.1684
 20
417.117
 11
67.1684
 21
420.21
  0
LINE
  8
0
 10
67.1684
 20
420.21
 11
86.0966
 21
420.21
  0
LINE
  8
0
 10
86.0966
 20
420.21
 11
86.0966
 21
417.117
  0
LINE
  8
0
 10
86.0966
 20
417.117
 11
105.485
 21
417.117
  0
LINE
  8
0
 10
105.485
 20
417.117
 11
105.485
 21
420.21
  0
LINE
  8
0
 10
105.485
 20
420.21
 11
124.413
 21
420.21
  0
LINE
  8
0
 10
124.413
 20
420.21
 11
124.413
 21
417.117
  0
LINE
  8
0
 10
124.413
 20
417.117
 11
143.801
 21
417.117
  0
LINE
  8
0
 10
143.801
 20
417.117
 11
143.801
 21
420.21
  0
LINE
  8
0
 10
143.801
 20
420.21
 11
162.729
 21
420.21
  0
LINE
  8
0
 10
162.729
 20
420.21
 11
162.729
 21
417.117
  0
LINE
  8
0
 10
162.729
 20
417.117
 11
182.117
 21
417.117
  0
LINE
  8
0
 10
182.117
 20
417.117
 11
182.117
 21
420.21
  0
LINE
  8
0
 10
182.117
 20
420.21
 11
201.045
 21
420.21
  0
LINE
  8
0
 10
201.045
 20
420.21
 11
201.045
 21
417.117
  0
LINE
  8
0
 10
201.045
 20
417.117
 11
220.433
 21
417.117
  0
LINE
  8
0
 10
220.433
 20
417.117
 11
220.433
 21
420.21
  0
LINE
  8
0
 10
220.433
 20
420.21
 11
239.362
 21
420.21
  0
LINE
  8
0
 10
239.362
 20
420.21
 11
239.362
 21
417.117
  0
LINE
  8
0
 10
239.362
 20
417.117
 11
258.75
 21
417.117
  0
LINE
  8
0
 10
258.75
 20
417.117
 11
258.75
 21
420.21
  0
LINE
  8
0
 10
258.75
 20
420.21
 11
277.678
 21
420.21
  0
LINE
  8
0
 10
277.678
 20
420.21
 11
277.678
 21
417.117
  0
LINE
  8
0
 10
277.678
 20
417.117
 11
297.066
 21
417.117
  0
LINE
  8
0
 10
297.066
 20
417.117
 11
297.066
 21
420.21
  0
LINE
  8
0
 10
297.066
 20
420.21
 11
306.53
 21
420.21
  0
LINE
  8
0
 10
306.53
 20
420.21
 11
306.53
 21
429.651
  0
LINE
  8
0
 10
306.53
 20
429.651
 11
303.552
 21
429.651
  0
LINE
  8
0
 10
303.552
 20
429.651
 11
303.552
 21
448.074
  0
LINE
  8
0
 10
303.552
 20
448.074
 11
306.53
 21
448.074
  0
LINE
  8
0
 10
306.53
 20
448.074
 11
306.53
 21
466.957
  0
LINE
  8
0
 10
306.53
 20
466.957
 11
303.552
 21
466.957
  0
LINE
  8
0
 10
303.552
 20
466.957
 11
303.552
 21
485.38
  0
LINE
  8
0
 10
303.552
 20
485.38
 11
306.53
 21
485.38
  0
LINE
  8
0
 10
306.53
 20
485.38
 11
306.53
 21
504.263
  0
LINE
  8
0
 10
306.53
 20
504.263
 11
303.552
 21
504.263
  0
LINE
  8
0
 10
303.552
 20
504.263
 11
303.552
 21
522.687
  0
LINE
  8
0
 10
303.552
 20
522.687
 11
306.53
 21
522.687
  0
LINE
  8
0
 10
306.53
 20
522.687
 11
306.53
 21
541.57
  0
LINE
  8
0
 10
306.53
 20
541.57
 11
303.552
 21
541.57
  0
LINE
  8
0
 10
303.552
 20
541.57
 11
303.552
 21
559.992
  0
LINE
  8
0
 10
303.552
 20
559.992
 11
306.53
 21
559.992
  0
LINE
  8
0
 10
306.53
 20
559.992
 11
306.53
 21
578.875
  0
LINE
  8
0
 10
306.53
 20
578.875
 11
303.552
 21
578.875
  0
LINE
  8
0
 10
303.552
 20
578.875
 11
303.552
 21
597.299
  0
LINE
  8
0
 10
303.552
 20
597.299
 11
306.53
 21
597.299
  0
LINE
  8
0
 10
306.53
 20
597.299
 11
306.53
 21
606.74
  0
LINE
  8
0
 10
306.53
 20
606.74
 11
297.066
 21
606.74
  0
LINE
  8
0
 10
297.066
 20
606.74
 11
297.066
 21
609.833
  0
LINE
  8
0
 10
297.066
 20
609.833
 11
277.678
 21
609.833
  0
LINE
  8
0
 10
277.678
 20
609.833
 11
277.678
 21
606.74
  0
LINE
  8
0
 10
277.678
 20
606.74
 11
258.75
 21
606.74
  0
LINE
  8
0
 10
258.75
 20
606.74
 11
258.75
 21
609.833
  0
LINE
  8
0
 10
258.75
 20
609.833
 11
239.362
 21
609.833
  0
LINE
  8
0
 10
239.362
 20
609.833
 11
239.362
 21
606.74
  0
LINE
  8
0
 10
239.362
 20
606.74
 11
220.433
 21
606.74
  0
LINE
  8
0
 10
220.433
 20
606.74
 11
220.433
 21
609.833
  0
LINE
  8
0
 10
220.433
 20
609.833
 11
201.045
 21
609.833
  0
LINE
  8
0
 10
201.045
 20
609.833
 11
201.045
 21
606.74
  0
LINE
  8
0
 10
201.045
 20
606.74
 11
182.117
 21
606.74
  0
LINE
  8
0
 10
182.117
 20
606.74
 11
182.117
 21
609.833
  0
LINE
  8
0
 10
182.117
 20
609.833
 11
162.729
 21
609.833
  0
LINE
  8
0
 10
162.729
 20
609.833
 11
162.729
 21
606.74
  0
LINE
  8
0
 10
162.729
 20
606.74
 11
143.801
 21
606.74
  0
LINE
  8
0
 10
143.801
 20
606.74
 11
143.801
 21
609.833
  0
LINE
  8
0
 10
143.801
 20
609.833
 11
124.413
 21
609.833
  0
LINE
  8
0
 10
124.413
 20
609.833
 11
124.413
 21
606.74
  0
LINE
  8
0
 10
124.413
 20
606.74
 11
105.485
 21
606.74
  0
LINE
  8
0
 10
105.485
 20
606.74
 11
105.485
 21
609.833
  0
LINE
  8
0
 10
105.485
 20
609.833
 11
86.0966
 21
609.833
  0
LINE
  8
0
 10
86.0966
 20
609.833
 11
86.0966
 21
606.74
  0
LINE
  8
0
 10
86.0966
 20
606.74
 11
67.1684
 21
606.74
  0
LINE
  8
0
 10
67.1684
 20
606.74
 11
67.1684
 21
609.833
  0
LINE
  8
0
 10
67.1684
 20
609.833
 11
47.7803
 21
609.833
  0
LINE
  8
0
 10
47.7803
 20
609.833
 11
47.7803
 21
606.74
  0
LINE
  8
0
 10
47.7803
 20
606.74
 11
28.8522
 21
606.74
  0
LINE
  8
0
 10
28.8522
 20
606.74
 11
28.8522
 21
609.833
  0
LINE
  8
0
 10
28.8522
 20
609.833
 11
9.46405
 21
609.833
  0
LINE
  8
0
 10
9.46405
 20
609.833
 11
9.46405
 21
606.74
  0
LINE
  8
0
 10
9.46405
 20
606.74
 11
0
 21
606.74
  0
LINE
  8
0
 10
0
 20
606.74
 11
0
 21
597.299
  0
LINE
  8
0
 10
0
 20
597.299
 11
2.97749
 21
597.299
  0
LINE
  8
0
 10
2.97749
 20
597.299
 11
2.97749
 21
578.875
  0
LINE
  8
0
 10
2.97749
 20
578.875
 11
0
 21
578.875
  0
LINE
  8
0
 10
0
 20
578.875
 11
0
 21
559.992
  0
LINE
  8
0
 10
0
 20
559.992
 11
2.97749
 21
559.992
  0
LINE
  8
0
 10
2.97749
 20
559.992
 11
2.97749
 21
541.57
  0
LINE
  8
0
 10
2.97749
 20
541.57
 11
0
 21
541.57
  0
LINE
  8
0
 10
0
 20
541.57
 11
0
 21
522.687
  0
LINE
  8
0
 10
0
 20
522.687
 11
2.97749
 21
522.687
  0
LINE
  8
0
 10
2.97749
 20
522.687
 11
2.97749
 21
504.263
  0
LINE
  8
0
 10
2.97749
 20
504.263
 11
0
 21
504.263
  0
LINE
  8
0
 10
0
 20
504.263
 11
0
 21
485.38
  0
LINE
  8
0
 10
0
 20
485.38
 11
2.97749
 21
485.38
  0
LINE
  8
0
 10
2.97749
 20
485.38
 11
2.97749
 21
466.957
  0
LINE
  8
0
 10
2.97749
 20
466.957
 11
0
 21
466.957
  0
LINE
  8
0
 10
0
 20
466.957
 11
0
 21
448.074
  0
LINE
  8
0
 10
0
 20
448.074
 11
2.97749
 21
448.074
  0
LINE
  8
0
 10
2.97749
 20
448.074
 11
2.97749
 21
429.651
  0
LINE
  8
0
 10
2.97749
 20
429.651
 11
0
 21
429.651
  0
LINE
  8
0
 10
0
 20
429.651
 11
0
 21
420.21
  0
LINE
  8
0
 10
0
 20
420.21
 11
9.46405
 21
420.21
  0
LINE
  8
0
 10
9.46405
 20
420.21
 11
9.46405
 21
417.117
  0
LINE
  8
0
 10
9.46405
 20
417.117
 11
28.8522
 21
417.117
  0
LINE
  8
0
 10
28.8522
 20
417.117
 11
28.8522
 21
420.21
  0
LINE
  8
0
 10
284.287
 20
584.152
 11
283.244
 21
585.775
  0
LINE
  8
0
 10
283.244
 20
585.775
 11
283.244
 21
587.705
  0
LINE
  8
0
 10
283.244
 20
587.705
 11
284.287
 21
589.328
  0
LINE
  8
0
 10
284.287
 20
589.328
 11
286.043
 21
590.13
  0
LINE
  8
0
 10
286.043
 20
590.13
 11
287.953
 21
589.855
  0
LINE
  8
0
 10
287.953
 20
589.855
 11
289.411
 21
588.592
  0
LINE
  8
0
 10
289.411
 20
588.592
 11
289.955
 21
586.74
  0
LINE
  8
0
 10
289.955
 20
586.74
 11
289.411
 21
584.888
  0
LINE
  8
0
 10
289.411
 20
584.888
 11
287.953
 21
583.625
  0
LINE
  8
0
 10
287.953
 20
583.625
 11
286.043
 21
583.35
  0
LINE
  8
0
 10
286.043
 20
583.35
 11
284.287
 21
584.152
  0
LINE
  8
0
 10
17.7571
 20
584.152
 11
16.7137
 21
585.775
  0
LINE
  8
0
 10
16.7137
 20
585.775
 11
16.7137
 21
587.705
  0
LINE
  8
0
 10
16.7137
 20
587.705
 11
17.7571
 21
589.328
  0
LINE
  8
0
 10
17.7571
 20
589.328
 11
19.5126
 21
590.13
  0
LINE
  8
0
 10
19.5126
 20
590.13
 11
21.4228
 21
589.855
  0
LINE
  8
0
 10
21.4228
 20
589.855
 11
22.8813
 21
588.592
  0
LINE
  8
0
 10
22.8813
 20
588.592
 11
23.425
 21
586.74
  0
LINE
  8
0
 10
23.425
 20
586.74
 11
22.8813
 21
584.888
  0
LINE
  8
0
 10
22.8813
 20
584.888
 11
21.4228
 21
583.625
  0
LINE
  8
0
 10
21.4228
 20
583.625
 11
19.5126
 21
583.35
  0
LINE
  8
0
 10
19.5126
 20
583.35
 11
17.7571
 21
584.152
  0
LINE
  8
0
 10
9.07906
 20
211.815
 11
29.2372
 21
211.815
  0
LINE
  8
0
 10
29.2372
 20
211.815
 11
29.2372
 21
208.53
  0
LINE
  8
0
 10
29.2372
 20
208.53
 11
47.3953
 21
208.53
  0
LINE
  8
0
 10
47.3953
 20
208.53
 11
47.3953
 21
211.815
  0
LINE
  8
0
 10
47.3953
 20
211.815
 11
67.5534
 21
211.815
  0
LINE
  8
0
 10
67.5534
 20
211.815
 11
67.5534
 21
208.53
  0
LINE
  8
0
 10
67.5534
 20
208.53
 11
85.7116
 21
208.53
  0
LINE
  8
0
 10
85.7116
 20
208.53
 11
85.7116
 21
211.815
  0
LINE
  8
0
 10
85.7116
 20
211.815
 11
105.87
 21
211.815
  0
LINE
  8
0
 10
105.87
 20
211.815
 11
105.87
 21
208.53
  0
LINE
  8
0
 10
105.87
 20
208.53
 11
124.028
 21
208.53
  0
LINE
  8
0
 10
124.028
 20
208.53
 11
124.028
 21
211.815
  0
LINE
  8
0
 10
124.028
 20
211.815
 11
144.186
 21
211.815
  0
LINE
  8
0
 10
144.186
 20
211.815
 11
144.186
 21
208.53
  0
LINE
  8
0
 10
144.186
 20
208.53
 11
162.344
 21
208.53
  0
LINE
  8
0
 10
162.344
 20
208.53
 11
162.344
 21
211.815
  0
LINE
  8
0
 10
162.344
 20
211.815
 11
182.502
 21
211.815
  0
LINE
  8
0
 10
182.502
 20
211.815
 11
182.502
 21
208.53
  0
LINE
  8
0
 10
182.502
 20
208.53
 11
200.66
 21
208.53
  0
LINE
  8
0
 10
200.66
 20
208.53
 11
200.66
 21
211.815
  0
LINE
  8
0
 10
200.66
 20
211.815
 11
220.818
 21
211.815
  0
LINE
  8
0
 10
220.818
 20
211.815
 11
220.818
 21
208.53
  0
LINE
  8
0
 10
220.818
 20
208.53
 11
238.977
 21
208.53
  0
LINE
  8
0
 10
238.977
 20
208.53
 11
238.977
 21
211.815
  0
LINE
  8
0
 10
238.977
 20
211.815
 11
259.135
 21
211.815
  0
LINE
  8
0
 10
259.135
 20
211.815
 11
259.135
 21
208.53
  0
LINE
  8
0
 10
259.135
 20
208.53
 11
277.293
 21
208.53
  0
LINE
  8
0
 10
277.293
 20
208.53
 11
277.293
 21
211.815
  0
LINE
  8
0
 10
277.293
 20
211.815
 11
297.451
 21
211.815
  0
LINE
  8
0
 10
297.451
 20
211.815
 11
297.451
 21
208.53
  0
LINE
  8
0
 10
297.451
 20
208.53
 11
306.53
 21
208.53
  0
LINE
  8
0
 10
306.53
 20
208.53
 11
306.53
 21
218.357
  0
LINE
  8
0
 10
306.53
 20
218.357
 11
303.245
 21
218.357
  0
LINE
  8
0
 10
303.245
 20
218.357
 11
303.245
 21
240.01
  0
LINE
  8
0
 10
303.245
 20
240.01
 11
306.53
 21
240.01
  0
LINE
  8
0
 10
306.53
 20
240.01
 11
306.53
 21
259.663
  0
LINE
  8
0
 10
306.53
 20
259.663
 11
303.245
 21
259.663
  0
LINE
  8
0
 10
303.245
 20
259.663
 11
303.245
 21
281.315
  0
LINE
  8
0
 10
303.245
 20
281.315
 11
306.53
 21
281.315
  0
LINE
  8
0
 10
306.53
 20
281.315
 11
306.53
 21
300.969
  0
LINE
  8
0
 10
306.53
 20
300.969
 11
303.245
 21
300.969
  0
LINE
  8
0
 10
303.245
 20
300.969
 11
303.245
 21
322.621
  0
LINE
  8
0
 10
303.245
 20
322.621
 11
306.53
 21
322.621
  0
LINE
  8
0
 10
306.53
 20
322.621
 11
306.53
 21
342.275
  0
LINE
  8
0
 10
306.53
 20
342.275
 11
303.245
 21
342.275
  0
LINE
  8
0
 10
303.245
 20
342.275
 11
303.245
 21
363.927
  0
LINE
  8
0
 10
303.245
 20
363.927
 11
306.53
 21
363.927
  0
LINE
  8
0
 10
306.53
 20
363.927
 11
306.53
 21
383.581
  0
LINE
  8
0
 10
306.53
 20
383.581
 11
303.245
 21
383.581
  0
LINE
  8
0
 10
303.245
 20
383.581
 11
303.245
 21
405.233
  0
LINE
  8
0
 10
303.245
 20
405.233
 11
306.53
 21
405.233
  0
LINE
  8
0
 10
306.53
 20
405.233
 11
306.53
 21
415.06
  0
LINE
  8
0
 10
306.53
 20
415.06
 11
297.451
 21
415.06
  0
LINE
  8
0
 10
297.451
 20
415.06
 11
297.451
 21
411.775
  0
LINE
  8
0
 10
297.451
 20
411.775
 11
277.293
 21
411.775
  0
LINE
  8
0
 10
277.293
 20
411.775
 11
277.293
 21
415.06
  0
LINE
  8
0
 10
277.293
 20
415.06
 11
259.135
 21
415.06
  0
LINE
  8
0
 10
259.135
 20
415.06
 11
259.135
 21
411.775
  0
LINE
  8
0
 10
259.135
 20
411.775
 11
238.977
 21
411.775
  0
LINE
  8
0
 10
238.977
 20
411.775
 11
238.977
 21
415.06
  0
LINE
  8
0
 10
238.977
 20
415.06
 11
220.818
 21
415.06
  0
LINE
  8
0
 10
220.818
 20
415.06
 11
220.818
 21
411.775
  0
LINE
  8
0
 10
220.818
 20
411.775
 11
200.66
 21
411.775
  0
LINE
  8
0
 10
200.66
 20
411.775
 11
200.66
 21
415.06
  0
LINE
  8
0
 10
200.66
 20
415.06
 11
182.502
 21
415.06
  0
LINE
  8
0
 10
182.502
 20
415.06
 11
182.502
 21
411.775
  0
LINE
  8
0
 10
182.502
 20
411.775
 11
162.344
 21
411.775
  0
LINE
  8
0
 10
162.344
 20
411.775
 11
162.344
 21
415.06
  0
LINE
  8
0
 10
162.344
 20
415.06
 11
144.186
 21
415.06
  0
LINE
  8
0
 10
144.186
 20
415.06
 11
144.186
 21
411.775
  0
LINE
  8
0
 10
144.186
 20
411.775
 11
124.028
 21
411.775
  0
LINE
  8
0
 10
124.028
 20
411.775
 11
124.028
 21
415.06
  0
LINE
  8
0
 10
124.028
 20
415.06
 11
105.87
 21
415.06
  0
LINE
  8
0
 10
105.87
 20
415.06
 11
105.87
 21
411.775
  0
LINE
  8
0
 10
105.87
 20
411.775
 11
85.7116
 21
411.775
  0
LINE
  8
0
 10
85.7116
 20
411.775
 11
85.7116
 21
415.06
  0
LINE
  8
0
 10
85.7116
 20
415.06
 11
67.5534
 21
415.06
  0
LINE
  8
0
 10
67.5534
 20
415.06
 11
67.5534
 21
411.775
  0
LINE
  8
0
 10
67.5534
 20
411.775
 11
47.3953
 21
411.775
  0
LINE
  8
0
 10
47.3953
 20
411.775
 11
47.3953
 21
415.06
  0
LINE
  8
0
 10
47.3953
 20
415.06
 11
29.2372
 21
415.06
  0
LINE
  8
0
 10
29.2372
 20
415.06
 11
29.2372
 21
411.775
  0
LINE
  8
0
 10
29.2372
 20
411.775
 11
9.07906
 21
411.775
  0
LINE
  8
0
 10
9.07906
 20
411.775
 11
9.07906
 21
415.06
  0
LINE
  8
0
 10
9.07906
 20
415.06
 11
0
 21
415.06
  0
LINE
  8
0
 10
0
 20
415.06
 11
0
 21
405.233
  0
LINE
  8
0
 10
0
 20
405.233
 11
3.28499
 21
405.233
  0
LINE
  8
0
 10
3.28499
 20
405.233
 11
3.28499
 21
383.581
  0
LINE
  8
0
 10
3.28499
 20
383.581
 11
0
 21
383.581
  0
LINE
  8
0
 10
0
 20
383.581
 11
0
 21
363.927
  0
LINE
  8
0
 10
0
 20
363.927
 11
3.28499
 21
363.927
  0
LINE
  8
0
 10
3.28499
 20
363.927
 11
3.28499
 21
342.275
  0
LINE
  8
0
 10
3.28499
 20
342.275
 11
0
 21
342.275
  0
LINE
  8
0
 10
0
 20
342.275
 11
0
 21
322.621
  0
LINE
  8
0
 10
0
 20
322.621
 11
3.28499
 21
322.621
  0
LINE
  8
0
 10
3.28499
 20
322.621
 11
3.28499
 21
300.969
  0
LINE
  8
0
 10
3.28499
 20
300.969
 11
0
 21
300.969
  0
LINE
  8
0
 10
0
 20
300.969
 11
0
 21
281.315
  0
LINE
  8
0
 10
0
 20
281.315
 11
3.28499
 21
281.315
  0
LINE
  8
0
 10
3.28499
 20
281.315
 11
3.28499
 21
259.663
  0
LINE
  8
0
 10
3.28499
 20
259.663
 11
0
 21
259.663
  0
LINE
  8
0
 10
0
 20
259.663
 11
0
 21
240.01
  0
LINE
  8
0
 10
0
 20
240.01
 11
3.28499
 21
240.01
  0
LINE
  8
0
 10
3.28499
 20
240.01
 11
3.28499
 21
218.357
  0
LINE
  8
0
 10
3.28499
 20
218.357
 11
0
 21
218.357
  0
LINE
  8
0
 10
0
 20
218.357
 11
0
 21
208.53
  0
LINE
  8
0
 10
0
 20
208.53
 11
9.07906
 21
208.53
  0
LINE
  8
0
 10
9.07906
 20
208.53
 11
9.07906
 21
211.815
  0
LINE
  8
0
 10
9.69406
 20
2.97749
 11
28.6222
 21
2.97749
  0
LINE
  8
0
 10
28.6222
 20
2.97749
 11
28.6222
 21
0
  0
LINE
  8
0
 10
28.6222
 20
0
 11
48.0103
 21
0
  0
LINE
  8
0
 10
48.0103
 20
0
 11
48.0103
 21
2.97749
  0
LINE
  8
0
 10
48.0103
 20
2.97749
 11
66.9384
 21
2.97749
  0
LINE
  8
0
 10
66.9384
 20
2.97749
 11
66.9384
 21
0
  0
LINE
  8
0
 10
66.9384
 20
0
 11
86.3266
 21
0
  0
LINE
  8
0
 10
86.3266
 20
0
 11
86.3266
 21
2.97749
  0
LINE
  8
0
 10
86.3266
 20
2.97749
 11
105.255
 21
2.97749
  0
LINE
  8
0
 10
105.255
 20
2.97749
 11
105.255
 21
0
  0
LINE
  8
0
 10
105.255
 20
0
 11
124.643
 21
0
  0
LINE
  8
0
 10
124.643
 20
0
 11
124.643
 21
2.97749
  0
LINE
  8
0
 10
124.643
 20
2.97749
 11
143.571
 21
2.97749
  0
LINE
  8
0
 10
143.571
 20
2.97749
 11
143.571
 21
0
  0
LINE
  8
0
 10
143.571
 20
0
 11
162.959
 21
0
  0
LINE
  8
0
 10
162.959
 20
0
 11
162.959
 21
2.97749
  0
LINE
  8
0
 10
162.959
 20
2.97749
 11
181.887
 21
2.97749
  0
LINE
  8
0
 10
181.887
 20
2.97749
 11
181.887
 21
0
  0
LINE
  8
0
 10
181.887
 20
0
 11
201.275
 21
0
  0
LINE
  8
0
 10
201.275
 20
0
 11
201.275
 21
2.97749
  0
LINE
  8
0
 10
201.275
 20
2.97749
 11
220.203
 21
2.97749
  0
LINE
  8
0
 10
220.203
 20
2.97749
 11
220.203
 21
0
  0
LINE
  8
0
 10
220.203
 20
0
 11
239.592
 21
0
  0
LINE
  8
0
 10
239.592
 20
0
 11
239.592
 21
2.97749
  0
LINE
  8
0
 10
239.592
 20
2.97749
 11
258.52
 21
2.97749
  0
LINE
  8
0
 10
258.52
 20
2.97749
 11
258.52
 21
0
  0
LINE
  8
0
 10
258.52
 20
0
 11
277.908
 21
0
  0
LINE
  8
0
 10
277.908
 20
0
 11
277.908
 21
2.97749
  0
LINE
  8
0
 10
277.908
 20
2.97749
 11
296.836
 21
2.97749
  0
LINE
  8
0
 10
296.836
 20
2.97749
 11
296.836
 21
0
  0
LINE
  8
0
 10
296.836
 20
0
 11
306.53
 21
0
  0
LINE
  8
0
 10
306.53
 20
0
 11
306.53
 21
10.4415
  0
LINE
  8
0
 10
306.53
 20
10.4415
 11
303.552
 21
10.4415
  0
LINE
  8
0
 10
303.552
 20
10.4415
 11
303.552
 21
30.8645
  0
LINE
  8
0
 10
303.552
 20
30.8645
 11
306.53
 21
30.8645
  0
LINE
  8
0
 10
306.53
 20
30.8645
 11
306.53
 21
51.7475
  0
LINE
  8
0
 10
306.53
 20
51.7475
 11
303.552
 21
51.7475
  0
LINE
  8
0
 10
303.552
 20
51.7475
 11
303.552
 21
72.1705
  0
LINE
  8
0
 10
303.552
 20
72.1705
 11
306.53
 21
72.1705
  0
LINE
  8
0
 10
306.53
 20
72.1705
 11
306.53
 21
93.0535
  0
LINE
  8
0
 10
306.53
 20
93.0535
 11
303.552
 21
93.0535
  0
LINE
  8
0
 10
303.552
 20
93.0535
 11
303.552
 21
113.477
  0
LINE
  8
0
 10
303.552
 20
113.477
 11
306.53
 21
113.477
  0
LINE
  8
0
 10
306.53
 20
113.477
 11
306.53
 21
134.359
  0
LINE
  8
0
 10
306.53
 20
134.359
 11
303.552
 21
134.359
  0
LINE
  8
0
 10
303.552
 20
134.359
 11
303.552
 21
154.783
  0
LINE
  8
0
 10
303.552
 20
154.783
 11
306.53
 21
154.783
  0
LINE
  8
0
 10
306.53
 20
154.783
 11
306.53
 21
175.665
  0
LINE
  8
0
 10
306.53
 20
175.665
 11
303.552
 21
175.665
  0
LINE
  8
0
 10
303.552
 20
175.665
 11
303.552
 21
196.089
  0
LINE
  8
0
 10
303.552
 20
196.089
 11
306.53
 21
196.089
  0
LINE
  8
0
 10
306.53
 20
196.089
 11
306.53
 21
206.53
  0
LINE
  8
0
 10
306.53
 20
206.53
 11
296.836
 21
206.53
  0
LINE
  8
0
 10
296.836
 20
206.53
 11
296.836
 21
203.553
  0
LINE
  8
0
 10
296.836
 20
203.553
 11
277.908
 21
203.553
  0
LINE
  8
0
 10
277.908
 20
203.553
 11
277.908
 21
206.53
  0
LINE
  8
0
 10
277.908
 20
206.53
 11
258.52
 21
206.53
  0
LINE
  8
0
 10
258.52
 20
206.53
 11
258.52
 21
203.553
  0
LINE
  8
0
 10
258.52
 20
203.553
 11
239.592
 21
203.553
  0
LINE
  8
0
 10
239.592
 20
203.553
 11
239.592
 21
206.53
  0
LINE
  8
0
 10
239.592
 20
206.53
 11
220.203
 21
206.53
  0
LINE
  8
0
 10
220.203
 20
206.53
 11
220.203
 21
203.553
  0
LINE
  8
0
 10
220.203
 20
203.553
 11
201.275
 21
203.553
  0
LINE
  8
0
 10
201.275
 20
203.553
 11
201.275
 21
206.53
  0
LINE
  8
0
 10
201.275
 20
206.53
 11
181.887
 21
206.53
  0
LINE
  8
0
 10
181.887
 20
206.53
 11
181.887
 21
203.553
  0
LINE
  8
0
 10
181.887
 20
203.553
 11
162.959
 21
203.553
  0
LINE
  8
0
 10
162.959
 20
203.553
 11
162.959
 21
206.53
  0
LINE
  8
0
 10
162.959
 20
206.53
 11
143.571
 21
206.53
  0
LINE
  8
0
 10
143.571
 20
206.53
 11
143.571
 21
203.553
  0
LINE
  8
0
 10
143.571
 20
203.553
 11
124.643
 21
203.553
  0
LINE
  8
0
 10
124.643
 20
203.553
 11
124.643
 21
206.53
  0
LINE
  8
0
 10
124.643
 20
206.53
 11
105.255
 21
206.53
  0
LINE
  8
0
 10
105.255
 20
206.53
 11
105.255
 21
203.553
  0
LINE
  8
0
 10
105.255
 20
203.553
 11
86.3266
 21
203.553
  0
LINE
  8
0
 10
86.3266
 20
203.553
 11
86.3266
 21
206.53
  0
LINE
  8
0
 10
86.3266
 20
206.53
 11
66.9384
 21
206.53
  0
LINE
  8
0
 10
66.9384
 20
206.53
 11
66.9384
 21
203.553
  0
LINE
  8
0
 10
66.9384
 20
203.553
 11
48.0103
 21
203.553
  0
LINE
  8
0
 10
48.0103
 20
203.553
 11
48.0103
 21
206.53
  0
LINE
  8
0
 10
48.0103
 20
206.53
 11
28.6222
 21
206.53
  0
LINE
  8
0
 10
28.6222
 20
206.53
 11
28.6222
 21
203.553
  0
LINE
  8
0
 10
28.6222
 20
203.553
 11
9.69406
 21
203.553
  0
LINE
  8
0
 10
9.69406
 20
203.553
 11
9.69406
 21
206.53
  0
LINE
  8
0
 10
9.69406
 20
206.53
 11
0
 21
206.53
  0
LINE
  8
0
 10
0
 20
206.53
 11
0
 21
196.089
  0
LINE
  8
0
 10
0
 20
196.089
 11
2.97749
 21
196.089
  0
LINE
  8
0
 10
2.97749
 20
196.089
 11
2.97749
 21
175.665
  0
LINE
  8
0
 10
2.97749
 20
175.665
 11
0
 21
175.665
  0
LINE
  8
0
 10
0
 20
175.665
 11
0
 21
154.783
  0
LINE
  8
0
 10
0
 20
154.783
 11
2.97749
 21
154.783
  0
LINE
  8
0
 10
2.97749
 20
154.783
 11
2.97749
 21
134.359
  0
LINE
  8
0
 10
2.97749
 20
134.359
 11
0
 21
134.359
  0
LINE
  8
0
 10
0
 20
134.359
 11
0
 21
113.477
  0
LINE
  8
0
 10
0
 20
113.477
 11
2.97749
 21
113.477
  0
LINE
  8
0
 10
2.97749
 20
113.477
 11
2.97749
 21
93.0535
  0
LINE
  8
0
 10
2.97749
 20
93.0535
 11
0
 21
93.0535
  0
LINE
  8
0
 10
0
 20
93.0535
 11
0
 21
72.1705
  0
LINE
  8
0
 10
0
 20
72.1705
 11
2.97749
 21
72.1705
  0
LINE
  8
0
 10
2.97749
 20
72.1705
 11
2.97749
 21
51.7475
  0
LINE
  8
0
 10
2.97749
 20
51.7475
 11
0
 21
51.7475
  0
LINE
  8
0
 10
0
 20
51.7475
 11
0
 21
30.8645
  0
LINE
  8
0
 10
0
 20
30.8645
 11
2.97749
 21
30.8645
  0
LINE
  8
0
 10
2.97749
 20
30.8645
 11
2.97749
 21
10.4415
  0
LINE
  8
0
 10
2.97749
 20
10.4415
 11
0
 21
10.4415
  0
LINE
  8
0
 10
0
 20
10.4415
 11
0
 21
0
  0
LINE
  8
0
 10
0
 20
0
 11
9.69406
 21
0
  0
LINE
  8
0
 10
9.69406
 20
0
 11
9.69406
 21
2.97749
  0
ENDSEC
  0
SECTION
  2
OBJECTS
  0
DICTIONARY
  0
ENDSEC
  0
EOF
