  0
SECTION
  2
BLOCKS
  0
ENDSEC
  0
SECTION
  2
ENTITIES
  0
LINE
  8
0
 10
164.969
 20
529.87
 11
180.556
 21
529.87
  0
LINE
  8
0
 10
180.556
 20
529.87
 11
180.556
 21
526.893
  0
LINE
  8
0
 10
180.556
 20
526.893
 11
196.602
 21
526.893
  0
LINE
  8
0
 10
196.602
 20
526.893
 11
196.602
 21
529.87
  0
LINE
  8
0
 10
196.602
 20
529.87
 11
212.188
 21
529.87
  0
LINE
  8
0
 10
212.188
 20
529.87
 11
212.188
 21
526.893
  0
LINE
  8
0
 10
212.188
 20
526.893
 11
228.234
 21
526.893
  0
LINE
  8
0
 10
228.234
 20
526.893
 11
228.234
 21
529.87
  0
LINE
  8
0
 10
228.234
 20
529.87
 11
243.821
 21
529.87
  0
LINE
  8
0
 10
243.821
 20
529.87
 11
243.821
 21
526.893
  0
LINE
  8
0
 10
243.821
 20
526.893
 11
259.867
 21
526.893
  0
LINE
  8
0
 10
259.867
 20
526.893
 11
259.867
 21
529.87
  0
LINE
  8
0
 10
259.867
 20
529.87
 11
267.66
 21
529.87
  0
LINE
  8
0
 10
267.66
 20
529.87
 11
267.66
 21
534.513
  0
LINE
  8
0
 10
267.66
 20
534.513
 11
270.753
 21
534.513
  0
LINE
  8
0
 10
270.753
 20
534.513
 11
270.753
 21
550.559
  0
LINE
  8
0
 10
270.753
 20
550.559
 11
267.66
 21
550.559
  0
LINE
  8
0
 10
267.66
 20
550.559
 11
267.66
 21
566.146
  0
LINE
  8
0
 10
267.66
 20
566.146
 11
270.753
 21
566.146
  0
LINE
  8
0
 10
270.753
 20
566.146
 11
270.753
 21
582.192
  0
LINE
  8
0
 10
270.753
 20
582.192
 11
267.66
 21
582.192
  0
LINE
  8
0
 10
267.66
 20
582.192
 11
267.66
 21
597.778
  0
LINE
  8
0
 10
267.66
 20
597.778
 11
270.753
 21
597.778
  0
LINE
  8
0
 10
270.753
 20
597.778
 11
270.753
 21
613.824
  0
LINE
  8
0
 10
270.753
 20
613.824
 11
267.66
 21
613.824
  0
LINE
  8
0
 10
267.66
 20
613.824
 11
267.66
 21
629.411
  0
LINE
  8
0
 10
267.66
 20
629.411
 11
270.753
 21
629.411
  0
LINE
  8
0
 10
270.753
 20
629.411
 11
270.753
 21
645.457
  0
LINE
  8
0
 10
270.753
 20
645.457
 11
267.66
 21
645.457
  0
LINE
  8
0
 10
267.66
 20
645.457
 11
267.66
 21
650.1
  0
LINE
  8
0
 10
267.66
 20
650.1
 11
259.867
 21
650.1
  0
LINE
  8
0
 10
259.867
 20
650.1
 11
259.867
 21
653.193
  0
LINE
  8
0
 10
259.867
 20
653.193
 11
243.821
 21
653.193
  0
LINE
  8
0
 10
243.821
 20
653.193
 11
243.821
 21
650.1
  0
LINE
  8
0
 10
243.821
 20
650.1
 11
228.234
 21
650.1
  0
LINE
  8
0
 10
228.234
 20
650.1
 11
228.234
 21
653.193
  0
LINE
  8
0
 10
228.234
 20
653.193
 11
212.188
 21
653.193
  0
LINE
  8
0
 10
212.188
 20
653.193
 11
212.188
 21
650.1
  0
LINE
  8
0
 10
212.188
 20
650.1
 11
196.602
 21
650.1
  0
LINE
  8
0
 10
196.602
 20
650.1
 11
196.602
 21
653.193
  0
LINE
  8
0
 10
196.602
 20
653.193
 11
180.556
 21
653.193
  0
LINE
  8
0
 10
180.556
 20
653.193
 11
180.556
 21
650.1
  0
LINE
  8
0
 10
180.556
 20
650.1
 11
164.969
 21
650.1
  0
LINE
  8
0
 10
164.969
 20
650.1
 11
164.969
 21
653.193
  0
LINE
  8
0
 10
164.969
 20
653.193
 11
148.923
 21
653.193
  0
LINE
  8
0
 10
148.923
 20
653.193
 11
148.923
 21
650.1
  0
LINE
  8
0
 10
148.923
 20
650.1
 11
141.13
 21
650.1
  0
LINE
  8
0
 10
141.13
 20
650.1
 11
141.13
 21
645.457
  0
LINE
  8
0
 10
141.13
 20
645.457
 11
138.038
 21
645.457
  0
LINE
  8
0
 10
138.038
 20
645.457
 11
138.038
 21
629.411
  0
LINE
  8
0
 10
138.038
 20
629.411
 11
141.13
 21
629.411
  0
LINE
  8
0
 10
141.13
 20
629.411
 11
141.13
 21
613.824
  0
LINE
  8
0
 10
141.13
 20
613.824
 11
138.038
 21
613.824
  0
LINE
  8
0
 10
138.038
 20
613.824
 11
138.038
 21
597.778
  0
LINE
  8
0
 10
138.038
 20
597.778
 11
141.13
 21
597.778
  0
LINE
  8
0
 10
141.13
 20
597.778
 11
141.13
 21
582.192
  0
LINE
  8
0
 10
141.13
 20
582.192
 11
138.038
 21
582.192
  0
LINE
  8
0
 10
138.038
 20
582.192
 11
138.038
 21
566.146
  0
LINE
  8
0
 10
138.038
 20
566.146
 11
141.13
 21
566.146
  0
LINE
  8
0
 10
141.13
 20
566.146
 11
141.13
 21
550.559
  0
LINE
  8
0
 10
141.13
 20
550.559
 11
138.038
 21
550.559
  0
LINE
  8
0
 10
138.038
 20
550.559
 11
138.038
 21
534.513
  0
LINE
  8
0
 10
138.038
 20
534.513
 11
141.13
 21
534.513
  0
LINE
  8
0
 10
141.13
 20
534.513
 11
141.13
 21
529.87
  0
LINE
  8
0
 10
141.13
 20
529.87
 11
148.923
 21
529.87
  0
LINE
  8
0
 10
148.923
 20
529.87
 11
148.923
 21
526.893
  0
LINE
  8
0
 10
148.923
 20
526.893
 11
164.969
 21
526.893
  0
LINE
  8
0
 10
164.969
 20
526.893
 11
164.969
 21
529.87
  0
LINE
  8
0
 10
26.9894
 20
529.87
 11
42.5756
 21
529.87
  0
LINE
  8
0
 10
42.5756
 20
529.87
 11
42.5756
 21
526.893
  0
LINE
  8
0
 10
42.5756
 20
526.893
 11
58.6219
 21
526.893
  0
LINE
  8
0
 10
58.6219
 20
526.893
 11
58.6219
 21
529.87
  0
LINE
  8
0
 10
58.6219
 20
529.87
 11
74.2081
 21
529.87
  0
LINE
  8
0
 10
74.2081
 20
529.87
 11
74.2081
 21
526.893
  0
LINE
  8
0
 10
74.2081
 20
526.893
 11
90.2544
 21
526.893
  0
LINE
  8
0
 10
90.2544
 20
526.893
 11
90.2544
 21
529.87
  0
LINE
  8
0
 10
90.2544
 20
529.87
 11
105.841
 21
529.87
  0
LINE
  8
0
 10
105.841
 20
529.87
 11
105.841
 21
526.893
  0
LINE
  8
0
 10
105.841
 20
526.893
 11
121.887
 21
526.893
  0
LINE
  8
0
 10
121.887
 20
526.893
 11
121.887
 21
529.87
  0
LINE
  8
0
 10
121.887
 20
529.87
 11
129.68
 21
529.87
  0
LINE
  8
0
 10
129.68
 20
529.87
 11
129.68
 21
534.513
  0
LINE
  8
0
 10
129.68
 20
534.513
 11
132.773
 21
534.513
  0
LINE
  8
0
 10
132.773
 20
534.513
 11
132.773
 21
550.559
  0
LINE
  8
0
 10
132.773
 20
550.559
 11
129.68
 21
550.559
  0
LINE
  8
0
 10
129.68
 20
550.559
 11
129.68
 21
566.146
  0
LINE
  8
0
 10
129.68
 20
566.146
 11
132.773
 21
566.146
  0
LINE
  8
0
 10
132.773
 20
566.146
 11
132.773
 21
582.192
  0
LINE
  8
0
 10
132.773
 20
582.192
 11
129.68
 21
582.192
  0
LINE
  8
0
 10
129.68
 20
582.192
 11
129.68
 21
597.778
  0
LINE
  8
0
 10
129.68
 20
597.778
 11
132.773
 21
597.778
  0
LINE
  8
0
 10
132.773
 20
597.778
 11
132.773
 21
613.824
  0
LINE
  8
0
 10
132.773
 20
613.824
 11
129.68
 21
613.824
  0
LINE
  8
0
 10
129.68
 20
613.824
 11
129.68
 21
629.411
  0
LINE
  8
0
 10
129.68
 20
629.411
 11
132.773
 21
629.411
  0
LINE
  8
0
 10
132.773
 20
629.411
 11
132.773
 21
645.457
  0
LINE
  8
0
 10
132.773
 20
645.457
 11
129.68
 21
645.457
  0
LINE
  8
0
 10
129.68
 20
645.457
 11
129.68
 21
650.1
  0
LINE
  8
0
 10
129.68
 20
650.1
 11
121.887
 21
650.1
  0
LINE
  8
0
 10
121.887
 20
650.1
 11
121.887
 21
653.193
  0
LINE
  8
0
 10
121.887
 20
653.193
 11
105.841
 21
653.193
  0
LINE
  8
0
 10
105.841
 20
653.193
 11
105.841
 21
650.1
  0
LINE
  8
0
 10
105.841
 20
650.1
 11
90.2544
 21
650.1
  0
LINE
  8
0
 10
90.2544
 20
650.1
 11
90.2544
 21
653.193
  0
LINE
  8
0
 10
90.2544
 20
653.193
 11
74.2081
 21
653.193
  0
LINE
  8
0
 10
74.2081
 20
653.193
 11
74.2081
 21
650.1
  0
LINE
  8
0
 10
74.2081
 20
650.1
 11
58.6219
 21
650.1
  0
LINE
  8
0
 10
58.6219
 20
650.1
 11
58.6219
 21
653.193
  0
LINE
  8
0
 10
58.6219
 20
653.193
 11
42.5756
 21
653.193
  0
LINE
  8
0
 10
42.5756
 20
653.193
 11
42.5756
 21
650.1
  0
LINE
  8
0
 10
42.5756
 20
650.1
 11
26.9894
 21
650.1
  0
LINE
  8
0
 10
26.9894
 20
650.1
 11
26.9894
 21
653.193
  0
LINE
  8
0
 10
26.9894
 20
653.193
 11
10.9431
 21
653.193
  0
LINE
  8
0
 10
10.9431
 20
653.193
 11
10.9431
 21
650.1
  0
LINE
  8
0
 10
10.9431
 20
650.1
 11
3.14999
 21
650.1
  0
LINE
  8
0
 10
3.14999
 20
650.1
 11
3.14999
 21
645.457
  0
LINE
  8
0
 10
3.14999
 20
645.457
 11
0.0574951
 21
645.457
  0
LINE
  8
0
 10
0.0574951
 20
645.457
 11
0.0574951
 21
629.411
  0
LINE
  8
0
 10
0.0574951
 20
629.411
 11
3.14999
 21
629.411
  0
LINE
  8
0
 10
3.14999
 20
629.411
 11
3.14999
 21
613.824
  0
LINE
  8
0
 10
3.14999
 20
613.824
 11
0.0574951
 21
613.824
  0
LINE
  8
0
 10
0.0574951
 20
613.824
 11
0.0574951
 21
597.778
  0
LINE
  8
0
 10
0.0574951
 20
597.778
 11
3.14999
 21
597.778
  0
LINE
  8
0
 10
3.14999
 20
597.778
 11
3.14999
 21
582.192
  0
LINE
  8
0
 10
3.14999
 20
582.192
 11
0.0574951
 21
582.192
  0
LINE
  8
0
 10
0.0574951
 20
582.192
 11
0.0574951
 21
566.146
  0
LINE
  8
0
 10
0.0574951
 20
566.146
 11
3.14999
 21
566.146
  0
LINE
  8
0
 10
3.14999
 20
566.146
 11
3.14999
 21
550.559
  0
LINE
  8
0
 10
3.14999
 20
550.559
 11
0.0574951
 21
550.559
  0
LINE
  8
0
 10
0.0574951
 20
550.559
 11
0.0574951
 21
534.513
  0
LINE
  8
0
 10
0.0574951
 20
534.513
 11
3.14999
 21
534.513
  0
LINE
  8
0
 10
3.14999
 20
534.513
 11
3.14999
 21
529.87
  0
LINE
  8
0
 10
3.14999
 20
529.87
 11
10.9431
 21
529.87
  0
LINE
  8
0
 10
10.9431
 20
529.87
 11
10.9431
 21
526.893
  0
LINE
  8
0
 10
10.9431
 20
526.893
 11
26.9894
 21
526.893
  0
LINE
  8
0
 10
26.9894
 20
526.893
 11
26.9894
 21
529.87
  0
LINE
  8
0
 10
46.7475
 20
393.89
 11
77.6058
 21
393.89
  0
LINE
  8
0
 10
77.6058
 20
393.89
 11
77.6058
 21
390.797
  0
LINE
  8
0
 10
77.6058
 20
390.797
 11
108.924
 21
390.797
  0
LINE
  8
0
 10
108.924
 20
390.797
 11
108.924
 21
393.89
  0
LINE
  8
0
 10
108.924
 20
393.89
 11
139.783
 21
393.89
  0
LINE
  8
0
 10
139.783
 20
393.89
 11
139.783
 21
390.797
  0
LINE
  8
0
 10
139.783
 20
390.797
 11
171.101
 21
390.797
  0
LINE
  8
0
 10
171.101
 20
390.797
 11
171.101
 21
393.89
  0
LINE
  8
0
 10
171.101
 20
393.89
 11
186.53
 21
393.89
  0
LINE
  8
0
 10
186.53
 20
393.89
 11
186.53
 21
401.913
  0
LINE
  8
0
 10
186.53
 20
401.913
 11
183.553
 21
401.913
  0
LINE
  8
0
 10
183.553
 20
401.913
 11
183.553
 21
417.499
  0
LINE
  8
0
 10
183.553
 20
417.499
 11
186.53
 21
417.499
  0
LINE
  8
0
 10
186.53
 20
417.499
 11
186.53
 21
433.546
  0
LINE
  8
0
 10
186.53
 20
433.546
 11
183.553
 21
433.546
  0
LINE
  8
0
 10
183.553
 20
433.546
 11
183.553
 21
449.132
  0
LINE
  8
0
 10
183.553
 20
449.132
 11
186.53
 21
449.132
  0
LINE
  8
0
 10
186.53
 20
449.132
 11
186.53
 21
465.178
  0
LINE
  8
0
 10
186.53
 20
465.178
 11
183.553
 21
465.178
  0
LINE
  8
0
 10
183.553
 20
465.178
 11
183.553
 21
480.764
  0
LINE
  8
0
 10
183.553
 20
480.764
 11
186.53
 21
480.764
  0
LINE
  8
0
 10
186.53
 20
480.764
 11
186.53
 21
496.811
  0
LINE
  8
0
 10
186.53
 20
496.811
 11
183.553
 21
496.811
  0
LINE
  8
0
 10
183.553
 20
496.811
 11
183.553
 21
512.397
  0
LINE
  8
0
 10
183.553
 20
512.397
 11
186.53
 21
512.397
  0
LINE
  8
0
 10
186.53
 20
512.397
 11
186.53
 21
520.42
  0
LINE
  8
0
 10
186.53
 20
520.42
 11
171.101
 21
520.42
  0
LINE
  8
0
 10
171.101
 20
520.42
 11
171.101
 21
523.513
  0
LINE
  8
0
 10
171.101
 20
523.513
 11
139.783
 21
523.513
  0
LINE
  8
0
 10
139.783
 20
523.513
 11
139.783
 21
520.42
  0
LINE
  8
0
 10
139.783
 20
520.42
 11
108.924
 21
520.42
  0
LINE
  8
0
 10
108.924
 20
520.42
 11
108.924
 21
523.513
  0
LINE
  8
0
 10
108.924
 20
523.513
 11
77.6058
 21
523.513
  0
LINE
  8
0
 10
77.6058
 20
523.513
 11
77.6058
 21
520.42
  0
LINE
  8
0
 10
77.6058
 20
520.42
 11
46.7475
 21
520.42
  0
LINE
  8
0
 10
46.7475
 20
520.42
 11
46.7475
 21
523.513
  0
LINE
  8
0
 10
46.7475
 20
523.513
 11
15.4292
 21
523.513
  0
LINE
  8
0
 10
15.4292
 20
523.513
 11
15.4292
 21
520.42
  0
LINE
  8
0
 10
15.4292
 20
520.42
 11
0
 21
520.42
  0
LINE
  8
0
 10
0
 20
520.42
 11
0
 21
512.397
  0
LINE
  8
0
 10
0
 20
512.397
 11
2.97749
 21
512.397
  0
LINE
  8
0
 10
2.97749
 20
512.397
 11
2.97749
 21
496.811
  0
LINE
  8
0
 10
2.97749
 20
496.811
 11
0
 21
496.811
  0
LINE
  8
0
 10
0
 20
496.811
 11
0
 21
480.764
  0
LINE
  8
0
 10
0
 20
480.764
 11
2.97749
 21
480.764
  0
LINE
  8
0
 10
2.97749
 20
480.764
 11
2.97749
 21
465.178
  0
LINE
  8
0
 10
2.97749
 20
465.178
 11
0
 21
465.178
  0
LINE
  8
0
 10
0
 20
465.178
 11
0
 21
449.132
  0
LINE
  8
0
 10
0
 20
449.132
 11
2.97749
 21
449.132
  0
LINE
  8
0
 10
2.97749
 20
449.132
 11
2.97749
 21
433.546
  0
LINE
  8
0
 10
2.97749
 20
433.546
 11
0
 21
433.546
  0
LINE
  8
0
 10
0
 20
433.546
 11
0
 21
417.499
  0
LINE
  8
0
 10
0
 20
417.499
 11
2.97749
 21
417.499
  0
LINE
  8
0
 10
2.97749
 20
417.499
 11
2.97749
 21
401.913
  0
LINE
  8
0
 10
2.97749
 20
401.913
 11
0
 21
401.913
  0
LINE
  8
0
 10
0
 20
401.913
 11
0
 21
393.89
  0
LINE
  8
0
 10
0
 20
393.89
 11
15.4292
 21
393.89
  0
LINE
  8
0
 10
15.4292
 20
393.89
 11
15.4292
 21
390.797
  0
LINE
  8
0
 10
15.4292
 20
390.797
 11
46.7475
 21
390.797
  0
LINE
  8
0
 10
46.7475
 20
390.797
 11
46.7475
 21
393.89
  0
LINE
  8
0
 10
164.287
 20
497.832
 11
163.244
 21
499.455
  0
LINE
  8
0
 10
163.244
 20
499.455
 11
163.244
 21
501.385
  0
LINE
  8
0
 10
163.244
 20
501.385
 11
164.287
 21
503.008
  0
LINE
  8
0
 10
164.287
 20
503.008
 11
166.043
 21
503.81
  0
LINE
  8
0
 10
166.043
 20
503.81
 11
167.953
 21
503.535
  0
LINE
  8
0
 10
167.953
 20
503.535
 11
169.411
 21
502.272
  0
LINE
  8
0
 10
169.411
 20
502.272
 11
169.955
 21
500.42
  0
LINE
  8
0
 10
169.955
 20
500.42
 11
169.411
 21
498.568
  0
LINE
  8
0
 10
169.411
 20
498.568
 11
167.953
 21
497.305
  0
LINE
  8
0
 10
167.953
 20
497.305
 11
166.043
 21
497.03
  0
LINE
  8
0
 10
166.043
 20
497.03
 11
164.287
 21
497.832
  0
LINE
  8
0
 10
17.7571
 20
497.832
 11
16.7137
 21
499.455
  0
LINE
  8
0
 10
16.7137
 20
499.455
 11
16.7137
 21
501.385
  0
LINE
  8
0
 10
16.7137
 20
501.385
 11
17.7571
 21
503.008
  0
LINE
  8
0
 10
17.7571
 20
503.008
 11
19.5126
 21
503.81
  0
LINE
  8
0
 10
19.5126
 20
503.81
 11
21.4228
 21
503.535
  0
LINE
  8
0
 10
21.4228
 20
503.535
 11
22.8813
 21
502.272
  0
LINE
  8
0
 10
22.8813
 20
502.272
 11
23.425
 21
500.42
  0
LINE
  8
0
 10
23.425
 20
500.42
 11
22.8813
 21
498.568
  0
LINE
  8
0
 10
22.8813
 20
498.568
 11
21.4228
 21
497.305
  0
LINE
  8
0
 10
21.4228
 20
497.305
 11
19.5126
 21
497.03
  0
LINE
  8
0
 10
19.5126
 20
497.03
 11
17.7571
 21
497.832
  0
LINE
  8
0
 10
46.7475
 20
260.21
 11
77.6058
 21
260.21
  0
LINE
  8
0
 10
77.6058
 20
260.21
 11
77.6058
 21
257.117
  0
LINE
  8
0
 10
77.6058
 20
257.117
 11
108.924
 21
257.117
  0
LINE
  8
0
 10
108.924
 20
257.117
 11
108.924
 21
260.21
  0
LINE
  8
0
 10
108.924
 20
260.21
 11
139.783
 21
260.21
  0
LINE
  8
0
 10
139.783
 20
260.21
 11
139.783
 21
257.117
  0
LINE
  8
0
 10
139.783
 20
257.117
 11
171.101
 21
257.117
  0
LINE
  8
0
 10
171.101
 20
257.117
 11
171.101
 21
260.21
  0
LINE
  8
0
 10
171.101
 20
260.21
 11
186.53
 21
260.21
  0
LINE
  8
0
 10
186.53
 20
260.21
 11
186.53
 21
268.233
  0
LINE
  8
0
 10
186.53
 20
268.233
 11
183.553
 21
268.233
  0
LINE
  8
0
 10
183.553
 20
268.233
 11
183.553
 21
283.819
  0
LINE
  8
0
 10
183.553
 20
283.819
 11
186.53
 21
283.819
  0
LINE
  8
0
 10
186.53
 20
283.819
 11
186.53
 21
299.866
  0
LINE
  8
0
 10
186.53
 20
299.866
 11
183.553
 21
299.866
  0
LINE
  8
0
 10
183.553
 20
299.866
 11
183.553
 21
315.452
  0
LINE
  8
0
 10
183.553
 20
315.452
 11
186.53
 21
315.452
  0
LINE
  8
0
 10
186.53
 20
315.452
 11
186.53
 21
331.498
  0
LINE
  8
0
 10
186.53
 20
331.498
 11
183.553
 21
331.498
  0
LINE
  8
0
 10
183.553
 20
331.498
 11
183.553
 21
347.084
  0
LINE
  8
0
 10
183.553
 20
347.084
 11
186.53
 21
347.084
  0
LINE
  8
0
 10
186.53
 20
347.084
 11
186.53
 21
363.131
  0
LINE
  8
0
 10
186.53
 20
363.131
 11
183.553
 21
363.131
  0
LINE
  8
0
 10
183.553
 20
363.131
 11
183.553
 21
378.717
  0
LINE
  8
0
 10
183.553
 20
378.717
 11
186.53
 21
378.717
  0
LINE
  8
0
 10
186.53
 20
378.717
 11
186.53
 21
386.74
  0
LINE
  8
0
 10
186.53
 20
386.74
 11
171.101
 21
386.74
  0
LINE
  8
0
 10
171.101
 20
386.74
 11
171.101
 21
389.832
  0
LINE
  8
0
 10
171.101
 20
389.832
 11
139.783
 21
389.832
  0
LINE
  8
0
 10
139.783
 20
389.832
 11
139.783
 21
386.74
  0
LINE
  8
0
 10
139.783
 20
386.74
 11
108.924
 21
386.74
  0
LINE
  8
0
 10
108.924
 20
386.74
 11
108.924
 21
389.832
  0
LINE
  8
0
 10
108.924
 20
389.832
 11
77.6058
 21
389.832
  0
LINE
  8
0
 10
77.6058
 20
389.832
 11
77.6058
 21
386.74
  0
LINE
  8
0
 10
77.6058
 20
386.74
 11
46.7475
 21
386.74
  0
LINE
  8
0
 10
46.7475
 20
386.74
 11
46.7475
 21
389.832
  0
LINE
  8
0
 10
46.7475
 20
389.832
 11
15.4292
 21
389.832
  0
LINE
  8
0
 10
15.4292
 20
389.832
 11
15.4292
 21
386.74
  0
LINE
  8
0
 10
15.4292
 20
386.74
 11
0
 21
386.74
  0
LINE
  8
0
 10
0
 20
386.74
 11
0
 21
378.717
  0
LINE
  8
0
 10
0
 20
378.717
 11
2.97749
 21
378.717
  0
LINE
  8
0
 10
2.97749
 20
378.717
 11
2.97749
 21
363.131
  0
LINE
  8
0
 10
2.97749
 20
363.131
 11
0
 21
363.131
  0
LINE
  8
0
 10
0
 20
363.131
 11
0
 21
347.084
  0
LINE
  8
0
 10
0
 20
347.084
 11
2.97749
 21
347.084
  0
LINE
  8
0
 10
2.97749
 20
347.084
 11
2.97749
 21
331.498
  0
LINE
  8
0
 10
2.97749
 20
331.498
 11
0
 21
331.498
  0
LINE
  8
0
 10
0
 20
331.498
 11
0
 21
315.452
  0
LINE
  8
0
 10
0
 20
315.452
 11
2.97749
 21
315.452
  0
LINE
  8
0
 10
2.97749
 20
315.452
 11
2.97749
 21
299.866
  0
LINE
  8
0
 10
2.97749
 20
299.866
 11
0
 21
299.866
  0
LINE
  8
0
 10
0
 20
299.866
 11
0
 21
283.819
  0
LINE
  8
0
 10
0
 20
283.819
 11
2.97749
 21
283.819
  0
LINE
  8
0
 10
2.97749
 20
283.819
 11
2.97749
 21
268.233
  0
LINE
  8
0
 10
2.97749
 20
268.233
 11
0
 21
268.233
  0
LINE
  8
0
 10
0
 20
268.233
 11
0
 21
260.21
  0
LINE
  8
0
 10
0
 20
260.21
 11
15.4292
 21
260.21
  0
LINE
  8
0
 10
15.4292
 20
260.21
 11
15.4292
 21
257.117
  0
LINE
  8
0
 10
15.4292
 20
257.117
 11
46.7475
 21
257.117
  0
LINE
  8
0
 10
46.7475
 20
257.117
 11
46.7475
 21
260.21
  0
LINE
  8
0
 10
164.287
 20
364.152
 11
163.244
 21
365.775
  0
LINE
  8
0
 10
163.244
 20
365.775
 11
163.244
 21
367.705
  0
LINE
  8
0
 10
163.244
 20
367.705
 11
164.287
 21
369.328
  0
LINE
  8
0
 10
164.287
 20
369.328
 11
166.043
 21
370.13
  0
LINE
  8
0
 10
166.043
 20
370.13
 11
167.953
 21
369.855
  0
LINE
  8
0
 10
167.953
 20
369.855
 11
169.411
 21
368.592
  0
LINE
  8
0
 10
169.411
 20
368.592
 11
169.955
 21
366.74
  0
LINE
  8
0
 10
169.955
 20
366.74
 11
169.411
 21
364.888
  0
LINE
  8
0
 10
169.411
 20
364.888
 11
167.953
 21
363.625
  0
LINE
  8
0
 10
167.953
 20
363.625
 11
166.043
 21
363.35
  0
LINE
  8
0
 10
166.043
 20
363.35
 11
164.287
 21
364.152
  0
LINE
  8
0
 10
17.7571
 20
364.152
 11
16.7137
 21
365.775
  0
LINE
  8
0
 10
16.7137
 20
365.775
 11
16.7137
 21
367.705
  0
LINE
  8
0
 10
16.7137
 20
367.705
 11
17.7571
 21
369.328
  0
LINE
  8
0
 10
17.7571
 20
369.328
 11
19.5126
 21
370.13
  0
LINE
  8
0
 10
19.5126
 20
370.13
 11
21.4228
 21
369.855
  0
LINE
  8
0
 10
21.4228
 20
369.855
 11
22.8813
 21
368.592
  0
LINE
  8
0
 10
22.8813
 20
368.592
 11
23.425
 21
366.74
  0
LINE
  8
0
 10
23.425
 20
366.74
 11
22.8813
 21
364.888
  0
LINE
  8
0
 10
22.8813
 20
364.888
 11
21.4228
 21
363.625
  0
LINE
  8
0
 10
21.4228
 20
363.625
 11
19.5126
 21
363.35
  0
LINE
  8
0
 10
19.5126
 20
363.35
 11
17.7571
 21
364.152
  0
LINE
  8
0
 10
15.0442
 20
131.815
 11
47.1325
 21
131.815
  0
LINE
  8
0
 10
47.1325
 20
131.815
 11
47.1325
 21
128.53
  0
LINE
  8
0
 10
47.1325
 20
128.53
 11
77.2208
 21
128.53
  0
LINE
  8
0
 10
77.2208
 20
128.53
 11
77.2208
 21
131.815
  0
LINE
  8
0
 10
77.2208
 20
131.815
 11
109.309
 21
131.815
  0
LINE
  8
0
 10
109.309
 20
131.815
 11
109.309
 21
128.53
  0
LINE
  8
0
 10
109.309
 20
128.53
 11
139.397
 21
128.53
  0
LINE
  8
0
 10
139.397
 20
128.53
 11
139.397
 21
131.815
  0
LINE
  8
0
 10
139.397
 20
131.815
 11
171.486
 21
131.815
  0
LINE
  8
0
 10
171.486
 20
131.815
 11
171.486
 21
128.53
  0
LINE
  8
0
 10
171.486
 20
128.53
 11
186.53
 21
128.53
  0
LINE
  8
0
 10
186.53
 20
128.53
 11
186.53
 21
135.938
  0
LINE
  8
0
 10
186.53
 20
135.938
 11
183.245
 21
135.938
  0
LINE
  8
0
 10
183.245
 20
135.938
 11
183.245
 21
152.754
  0
LINE
  8
0
 10
183.245
 20
152.754
 11
186.53
 21
152.754
  0
LINE
  8
0
 10
186.53
 20
152.754
 11
186.53
 21
167.571
  0
LINE
  8
0
 10
186.53
 20
167.571
 11
183.245
 21
167.571
  0
LINE
  8
0
 10
183.245
 20
167.571
 11
183.245
 21
184.387
  0
LINE
  8
0
 10
183.245
 20
184.387
 11
186.53
 21
184.387
  0
LINE
  8
0
 10
186.53
 20
184.387
 11
186.53
 21
199.203
  0
LINE
  8
0
 10
186.53
 20
199.203
 11
183.245
 21
199.203
  0
LINE
  8
0
 10
183.245
 20
199.203
 11
183.245
 21
216.019
  0
LINE
  8
0
 10
183.245
 20
216.019
 11
186.53
 21
216.019
  0
LINE
  8
0
 10
186.53
 20
216.019
 11
186.53
 21
230.836
  0
LINE
  8
0
 10
186.53
 20
230.836
 11
183.245
 21
230.836
  0
LINE
  8
0
 10
183.245
 20
230.836
 11
183.245
 21
247.652
  0
LINE
  8
0
 10
183.245
 20
247.652
 11
186.53
 21
247.652
  0
LINE
  8
0
 10
186.53
 20
247.652
 11
186.53
 21
255.06
  0
LINE
  8
0
 10
186.53
 20
255.06
 11
171.486
 21
255.06
  0
LINE
  8
0
 10
171.486
 20
255.06
 11
171.486
 21
251.775
  0
LINE
  8
0
 10
171.486
 20
251.775
 11
139.397
 21
251.775
  0
LINE
  8
0
 10
139.397
 20
251.775
 11
139.397
 21
255.06
  0
LINE
  8
0
 10
139.397
 20
255.06
 11
109.309
 21
255.06
  0
LINE
  8
0
 10
109.309
 20
255.06
 11
109.309
 21
251.775
  0
LINE
  8
0
 10
109.309
 20
251.775
 11
77.2208
 21
251.775
  0
LINE
  8
0
 10
77.2208
 20
251.775
 11
77.2208
 21
255.06
  0
LINE
  8
0
 10
77.2208
 20
255.06
 11
47.1325
 21
255.06
  0
LINE
  8
0
 10
47.1325
 20
255.06
 11
47.1325
 21
251.775
  0
LINE
  8
0
 10
47.1325
 20
251.775
 11
15.0442
 21
251.775
  0
LINE
  8
0
 10
15.0442
 20
251.775
 11
15.0442
 21
255.06
  0
LINE
  8
0
 10
15.0442
 20
255.06
 11
0
 21
255.06
  0
LINE
  8
0
 10
0
 20
255.06
 11
0
 21
247.652
  0
LINE
  8
0
 10
0
 20
247.652
 11
3.28499
 21
247.652
  0
LINE
  8
0
 10
3.28499
 20
247.652
 11
3.28499
 21
230.836
  0
LINE
  8
0
 10
3.28499
 20
230.836
 11
0
 21
230.836
  0
LINE
  8
0
 10
0
 20
230.836
 11
0
 21
216.019
  0
LINE
  8
0
 10
0
 20
216.019
 11
3.28499
 21
216.019
  0
LINE
  8
0
 10
3.28499
 20
216.019
 11
3.28499
 21
199.203
  0
LINE
  8
0
 10
3.28499
 20
199.203
 11
0
 21
199.203
  0
LINE
  8
0
 10
0
 20
199.203
 11
0
 21
184.387
  0
LINE
  8
0
 10
0
 20
184.387
 11
3.28499
 21
184.387
  0
LINE
  8
0
 10
3.28499
 20
184.387
 11
3.28499
 21
167.571
  0
LINE
  8
0
 10
3.28499
 20
167.571
 11
0
 21
167.571
  0
LINE
  8
0
 10
0
 20
167.571
 11
0
 21
152.754
  0
LINE
  8
0
 10
0
 20
152.754
 11
3.28499
 21
152.754
  0
LINE
  8
0
 10
3.28499
 20
152.754
 11
3.28499
 21
135.938
  0
LINE
  8
0
 10
3.28499
 20
135.938
 11
0
 21
135.938
  0
LINE
  8
0
 10
0
 20
135.938
 11
0
 21
128.53
  0
LINE
  8
0
 10
0
 20
128.53
 11
15.0442
 21
128.53
  0
LINE
  8
0
 10
15.0442
 20
128.53
 11
15.0442
 21
131.815
  0
LINE
  8
0
 10
15.6592
 20
2.97749
 11
46.5175
 21
2.97749
  0
LINE
  8
0
 10
46.5175
 20
2.97749
 11
46.5175
 21
0
  0
LINE
  8
0
 10
46.5175
 20
0
 11
77.8358
 21
0
  0
LINE
  8
0
 10
77.8358
 20
0
 11
77.8358
 21
2.97749
  0
LINE
  8
0
 10
77.8358
 20
2.97749
 11
108.694
 21
2.97749
  0
LINE
  8
0
 10
108.694
 20
2.97749
 11
108.694
 21
0
  0
LINE
  8
0
 10
108.694
 20
0
 11
140.012
 21
0
  0
LINE
  8
0
 10
140.012
 20
0
 11
140.012
 21
2.97749
  0
LINE
  8
0
 10
140.012
 20
2.97749
 11
170.871
 21
2.97749
  0
LINE
  8
0
 10
170.871
 20
2.97749
 11
170.871
 21
0
  0
LINE
  8
0
 10
170.871
 20
0
 11
186.53
 21
0
  0
LINE
  8
0
 10
186.53
 20
0
 11
186.53
 21
8.02312
  0
LINE
  8
0
 10
186.53
 20
8.02312
 11
183.553
 21
8.02312
  0
LINE
  8
0
 10
183.553
 20
8.02312
 11
183.553
 21
23.6094
  0
LINE
  8
0
 10
183.553
 20
23.6094
 11
186.53
 21
23.6094
  0
LINE
  8
0
 10
186.53
 20
23.6094
 11
186.53
 21
39.6556
  0
LINE
  8
0
 10
186.53
 20
39.6556
 11
183.553
 21
39.6556
  0
LINE
  8
0
 10
183.553
 20
39.6556
 11
183.553
 21
55.2419
  0
LINE
  8
0
 10
183.553
 20
55.2419
 11
186.53
 21
55.2419
  0
LINE
  8
0
 10
186.53
 20
55.2419
 11
186.53
 21
71.2881
  0
LINE
  8
0
 10
186.53
 20
71.2881
 11
183.553
 21
71.2881
  0
LINE
  8
0
 10
183.553
 20
71.2881
 11
183.553
 21
86.8744
  0
LINE
  8
0
 10
183.553
 20
86.8744
 11
186.53
 21
86.8744
  0
LINE
  8
0
 10
186.53
 20
86.8744
 11
186.53
 21
102.921
  0
LINE
  8
0
 10
186.53
 20
102.921
 11
183.553
 21
102.921
  0
LINE
  8
0
 10
183.553
 20
102.921
 11
183.553
 21
118.507
  0
LINE
  8
0
 10
183.553
 20
118.507
 11
186.53
 21
118.507
  0
LINE
  8
0
 10
186.53
 20
118.507
 11
186.53
 21
126.53
  0
LINE
  8
0
 10
186.53
 20
126.53
 11
170.871
 21
126.53
  0
LINE
  8
0
 10
170.871
 20
126.53
 11
170.871
 21
123.552
  0
LINE
  8
0
 10
170.871
 20
123.552
 11
140.012
 21
123.552
  0
LINE
  8
0
 10
140.012
 20
123.552
 11
140.012
 21
126.53
  0
LINE
  8
0
 10
140.012
 20
126.53
 11
108.694
 21
126.53
  0
LINE
  8
0
 10
108.694
 20
126.53
 11
108.694
 21
123.552
  0
LINE
  8
0
 10
108.694
 20
123.552
 11
77.8358
 21
123.552
  0
LINE
  8
0
 10
77.8358
 20
123.552
 11
77.8358
 21
126.53
  0
LINE
  8
0
 10
77.8358
 20
126.53
 11
46.5175
 21
126.53
  0
LINE
  8
0
 10
46.5175
 20
126.53
 11
46.5175
 21
123.552
  0
LINE
  8
0
 10
46.5175
 20
123.552
 11
15.6592
 21
123.552
  0
LINE
  8
0
 10
15.6592
 20
123.552
 11
15.6592
 21
126.53
  0
LINE
  8
0
 10
15.6592
 20
126.53
 11
0
 21
126.53
  0
LINE
  8
0
 10
0
 20
126.53
 11
0
 21
118.507
  0
LINE
  8
0
 10
0
 20
118.507
 11
2.97749
 21
118.507
  0
LINE
  8
0
 10
2.97749
 20
118.507
 11
2.97749
 21
102.921
  0
LINE
  8
0
 10
2.97749
 20
102.921
 11
0
 21
102.921
  0
LINE
  8
0
 10
0
 20
102.921
 11
0
 21
86.8744
  0
LINE
  8
0
 10
0
 20
86.8744
 11
2.97749
 21
86.8744
  0
LINE
  8
0
 10
2.97749
 20
86.8744
 11
2.97749
 21
71.2881
  0
LINE
  8
0
 10
2.97749
 20
71.2881
 11
0
 21
71.2881
  0
LINE
  8
0
 10
0
 20
71.2881
 11
0
 21
55.2419
  0
LINE
  8
0
 10
0
 20
55.2419
 11
2.97749
 21
55.2419
  0
LINE
  8
0
 10
2.97749
 20
55.2419
 11
2.97749
 21
39.6556
  0
LINE
  8
0
 10
2.97749
 20
39.6556
 11
0
 21
39.6556
  0
LINE
  8
0
 10
0
 20
39.6556
 11
0
 21
23.6094
  0
LINE
  8
0
 10
0
 20
23.6094
 11
2.97749
 21
23.6094
  0
LINE
  8
0
 10
2.97749
 20
23.6094
 11
2.97749
 21
8.02312
  0
LINE
  8
0
 10
2.97749
 20
8.02312
 11
0
 21
8.02312
  0
LINE
  8
0
 10
0
 20
8.02312
 11
0
 21
0
  0
LINE
  8
0
 10
0
 20
0
 11
15.6592
 21
0
  0
LINE
  8
0
 10
15.6592
 20
0
 11
15.6592
 21
2.97749
  0
ENDSEC
  0
SECTION
  2
OBJECTS
  0
DICTIONARY
  0
ENDSEC
  0
EOF
