  0
SECTION
  2
BLOCKS
  0
ENDSEC
  0
SECTION
  2
ENTITIES
  0
LINE
  8
0
 10
19.2445
 20
649.87
 11
29.6675
 21
649.87
  0
LINE
  8
0
 10
29.6675
 20
649.87
 11
29.6675
 21
646.893
  0
LINE
  8
0
 10
29.6675
 20
646.893
 11
40.5505
 21
646.893
  0
LINE
  8
0
 10
40.5505
 20
646.893
 11
40.5505
 21
649.87
  0
LINE
  8
0
 10
40.5505
 20
649.87
 11
50.9735
 21
649.87
  0
LINE
  8
0
 10
50.9735
 20
649.87
 11
50.9735
 21
646.893
  0
LINE
  8
0
 10
50.9735
 20
646.893
 11
61.8565
 21
646.893
  0
LINE
  8
0
 10
61.8565
 20
646.893
 11
61.8565
 21
649.87
  0
LINE
  8
0
 10
61.8565
 20
649.87
 11
72.2795
 21
649.87
  0
LINE
  8
0
 10
72.2795
 20
649.87
 11
72.2795
 21
646.893
  0
LINE
  8
0
 10
72.2795
 20
646.893
 11
83.1625
 21
646.893
  0
LINE
  8
0
 10
83.1625
 20
646.893
 11
83.1625
 21
649.87
  0
LINE
  8
0
 10
83.1625
 20
649.87
 11
93.5855
 21
649.87
  0
LINE
  8
0
 10
93.5855
 20
649.87
 11
93.5855
 21
646.893
  0
LINE
  8
0
 10
93.5855
 20
646.893
 11
104.468
 21
646.893
  0
LINE
  8
0
 10
104.468
 20
646.893
 11
104.468
 21
649.87
  0
LINE
  8
0
 10
104.468
 20
649.87
 11
109.68
 21
649.87
  0
LINE
  8
0
 10
109.68
 20
649.87
 11
109.68
 21
850.1
  0
LINE
  8
0
 10
109.68
 20
850.1
 11
104.468
 21
850.1
  0
LINE
  8
0
 10
104.468
 20
850.1
 11
104.468
 21
853.193
  0
LINE
  8
0
 10
104.468
 20
853.193
 11
93.5855
 21
853.193
  0
LINE
  8
0
 10
93.5855
 20
853.193
 11
93.5855
 21
850.1
  0
LINE
  8
0
 10
93.5855
 20
850.1
 11
83.1625
 21
850.1
  0
LINE
  8
0
 10
83.1625
 20
850.1
 11
83.1625
 21
853.193
  0
LINE
  8
0
 10
83.1625
 20
853.193
 11
72.2795
 21
853.193
  0
LINE
  8
0
 10
72.2795
 20
853.193
 11
72.2795
 21
850.1
  0
LINE
  8
0
 10
72.2795
 20
850.1
 11
61.8565
 21
850.1
  0
LINE
  8
0
 10
61.8565
 20
850.1
 11
61.8565
 21
853.193
  0
LINE
  8
0
 10
61.8565
 20
853.193
 11
50.9735
 21
853.193
  0
LINE
  8
0
 10
50.9735
 20
853.193
 11
50.9735
 21
850.1
  0
LINE
  8
0
 10
50.9735
 20
850.1
 11
40.5505
 21
850.1
  0
LINE
  8
0
 10
40.5505
 20
850.1
 11
40.5505
 21
853.193
  0
LINE
  8
0
 10
40.5505
 20
853.193
 11
29.6675
 21
853.193
  0
LINE
  8
0
 10
29.6675
 20
853.193
 11
29.6675
 21
850.1
  0
LINE
  8
0
 10
29.6675
 20
850.1
 11
19.2445
 21
850.1
  0
LINE
  8
0
 10
19.2445
 20
850.1
 11
19.2445
 21
853.193
  0
LINE
  8
0
 10
19.2445
 20
853.193
 11
8.3615
 21
853.193
  0
LINE
  8
0
 10
8.3615
 20
853.193
 11
8.3615
 21
850.1
  0
LINE
  8
0
 10
8.3615
 20
850.1
 11
3.14999
 21
850.1
  0
LINE
  8
0
 10
3.14999
 20
850.1
 11
3.14999
 21
843.039
  0
LINE
  8
0
 10
3.14999
 20
843.039
 11
0.0574951
 21
843.039
  0
LINE
  8
0
 10
0.0574951
 20
843.039
 11
0.0574951
 21
822.156
  0
LINE
  8
0
 10
0.0574951
 20
822.156
 11
3.14999
 21
822.156
  0
LINE
  8
0
 10
3.14999
 20
822.156
 11
3.14999
 21
801.732
  0
LINE
  8
0
 10
3.14999
 20
801.732
 11
0.0574951
 21
801.732
  0
LINE
  8
0
 10
0.0574951
 20
801.732
 11
0.0574951
 21
780.849
  0
LINE
  8
0
 10
0.0574951
 20
780.849
 11
3.14999
 21
780.849
  0
LINE
  8
0
 10
3.14999
 20
780.849
 11
3.14999
 21
760.427
  0
LINE
  8
0
 10
3.14999
 20
760.427
 11
0.0574951
 21
760.427
  0
LINE
  8
0
 10
0.0574951
 20
760.427
 11
0.0574951
 21
739.544
  0
LINE
  8
0
 10
0.0574951
 20
739.544
 11
3.14999
 21
739.544
  0
LINE
  8
0
 10
3.14999
 20
739.544
 11
3.14999
 21
719.12
  0
LINE
  8
0
 10
3.14999
 20
719.12
 11
0.0574951
 21
719.12
  0
LINE
  8
0
 10
0.0574951
 20
719.12
 11
0.0574951
 21
698.237
  0
LINE
  8
0
 10
0.0574951
 20
698.237
 11
3.14999
 21
698.237
  0
LINE
  8
0
 10
3.14999
 20
698.237
 11
3.14999
 21
677.815
  0
LINE
  8
0
 10
3.14999
 20
677.815
 11
0.0574951
 21
677.815
  0
LINE
  8
0
 10
0.0574951
 20
677.815
 11
0.0574951
 21
656.932
  0
LINE
  8
0
 10
0.0574951
 20
656.932
 11
3.14999
 21
656.932
  0
LINE
  8
0
 10
3.14999
 20
656.932
 11
3.14999
 21
649.87
  0
LINE
  8
0
 10
3.14999
 20
649.87
 11
8.3615
 21
649.87
  0
LINE
  8
0
 10
8.3615
 20
649.87
 11
8.3615
 21
646.893
  0
LINE
  8
0
 10
8.3615
 20
646.893
 11
19.2445
 21
646.893
  0
LINE
  8
0
 10
19.2445
 20
646.893
 11
19.2445
 21
649.87
  0
LINE
  8
0
 10
137.225
 20
649.87
 11
147.648
 21
649.87
  0
LINE
  8
0
 10
147.648
 20
649.87
 11
147.648
 21
646.893
  0
LINE
  8
0
 10
147.648
 20
646.893
 11
158.531
 21
646.893
  0
LINE
  8
0
 10
158.531
 20
646.893
 11
158.531
 21
649.87
  0
LINE
  8
0
 10
158.531
 20
649.87
 11
168.954
 21
649.87
  0
LINE
  8
0
 10
168.954
 20
649.87
 11
168.954
 21
646.893
  0
LINE
  8
0
 10
168.954
 20
646.893
 11
179.837
 21
646.893
  0
LINE
  8
0
 10
179.837
 20
646.893
 11
179.837
 21
649.87
  0
LINE
  8
0
 10
179.837
 20
649.87
 11
190.26
 21
649.87
  0
LINE
  8
0
 10
190.26
 20
649.87
 11
190.26
 21
646.893
  0
LINE
  8
0
 10
190.26
 20
646.893
 11
201.143
 21
646.893
  0
LINE
  8
0
 10
201.143
 20
646.893
 11
201.143
 21
649.87
  0
LINE
  8
0
 10
201.143
 20
649.87
 11
211.566
 21
649.87
  0
LINE
  8
0
 10
211.566
 20
649.87
 11
211.566
 21
646.893
  0
LINE
  8
0
 10
211.566
 20
646.893
 11
222.449
 21
646.893
  0
LINE
  8
0
 10
222.449
 20
646.893
 11
222.449
 21
649.87
  0
LINE
  8
0
 10
222.449
 20
649.87
 11
227.66
 21
649.87
  0
LINE
  8
0
 10
227.66
 20
649.87
 11
227.66
 21
850.1
  0
LINE
  8
0
 10
227.66
 20
850.1
 11
222.449
 21
850.1
  0
LINE
  8
0
 10
222.449
 20
850.1
 11
222.449
 21
853.193
  0
LINE
  8
0
 10
222.449
 20
853.193
 11
211.566
 21
853.193
  0
LINE
  8
0
 10
211.566
 20
853.193
 11
211.566
 21
850.1
  0
LINE
  8
0
 10
211.566
 20
850.1
 11
201.143
 21
850.1
  0
LINE
  8
0
 10
201.143
 20
850.1
 11
201.143
 21
853.193
  0
LINE
  8
0
 10
201.143
 20
853.193
 11
190.26
 21
853.193
  0
LINE
  8
0
 10
190.26
 20
853.193
 11
190.26
 21
850.1
  0
LINE
  8
0
 10
190.26
 20
850.1
 11
179.837
 21
850.1
  0
LINE
  8
0
 10
179.837
 20
850.1
 11
179.837
 21
853.193
  0
LINE
  8
0
 10
179.837
 20
853.193
 11
168.954
 21
853.193
  0
LINE
  8
0
 10
168.954
 20
853.193
 11
168.954
 21
850.1
  0
LINE
  8
0
 10
168.954
 20
850.1
 11
158.531
 21
850.1
  0
LINE
  8
0
 10
158.531
 20
850.1
 11
158.531
 21
853.193
  0
LINE
  8
0
 10
158.531
 20
853.193
 11
147.648
 21
853.193
  0
LINE
  8
0
 10
147.648
 20
853.193
 11
147.648
 21
850.1
  0
LINE
  8
0
 10
147.648
 20
850.1
 11
137.225
 21
850.1
  0
LINE
  8
0
 10
137.225
 20
850.1
 11
137.225
 21
853.193
  0
LINE
  8
0
 10
137.225
 20
853.193
 11
126.341
 21
853.193
  0
LINE
  8
0
 10
126.341
 20
853.193
 11
126.341
 21
850.1
  0
LINE
  8
0
 10
126.341
 20
850.1
 11
121.13
 21
850.1
  0
LINE
  8
0
 10
121.13
 20
850.1
 11
121.13
 21
843.039
  0
LINE
  8
0
 10
121.13
 20
843.039
 11
118.037
 21
843.039
  0
LINE
  8
0
 10
118.037
 20
843.039
 11
118.037
 21
822.156
  0
LINE
  8
0
 10
118.037
 20
822.156
 11
121.13
 21
822.156
  0
LINE
  8
0
 10
121.13
 20
822.156
 11
121.13
 21
801.732
  0
LINE
  8
0
 10
121.13
 20
801.732
 11
118.037
 21
801.732
  0
LINE
  8
0
 10
118.037
 20
801.732
 11
118.037
 21
780.849
  0
LINE
  8
0
 10
118.037
 20
780.849
 11
121.13
 21
780.849
  0
LINE
  8
0
 10
121.13
 20
780.849
 11
121.13
 21
760.427
  0
LINE
  8
0
 10
121.13
 20
760.427
 11
118.037
 21
760.427
  0
LINE
  8
0
 10
118.037
 20
760.427
 11
118.037
 21
739.544
  0
LINE
  8
0
 10
118.037
 20
739.544
 11
121.13
 21
739.544
  0
LINE
  8
0
 10
121.13
 20
739.544
 11
121.13
 21
719.12
  0
LINE
  8
0
 10
121.13
 20
719.12
 11
118.037
 21
719.12
  0
LINE
  8
0
 10
118.037
 20
719.12
 11
118.037
 21
698.237
  0
LINE
  8
0
 10
118.037
 20
698.237
 11
121.13
 21
698.237
  0
LINE
  8
0
 10
121.13
 20
698.237
 11
121.13
 21
677.815
  0
LINE
  8
0
 10
121.13
 20
677.815
 11
118.037
 21
677.815
  0
LINE
  8
0
 10
118.037
 20
677.815
 11
118.037
 21
656.932
  0
LINE
  8
0
 10
118.037
 20
656.932
 11
121.13
 21
656.932
  0
LINE
  8
0
 10
121.13
 20
656.932
 11
121.13
 21
649.87
  0
LINE
  8
0
 10
121.13
 20
649.87
 11
126.341
 21
649.87
  0
LINE
  8
0
 10
126.341
 20
649.87
 11
126.341
 21
646.893
  0
LINE
  8
0
 10
126.341
 20
646.893
 11
137.225
 21
646.893
  0
LINE
  8
0
 10
137.225
 20
646.893
 11
137.225
 21
649.87
  0
LINE
  8
0
 10
31.0945
 20
533.89
 11
51.5175
 21
533.89
  0
LINE
  8
0
 10
51.5175
 20
533.89
 11
51.5175
 21
530.797
  0
LINE
  8
0
 10
51.5175
 20
530.797
 11
72.4005
 21
530.797
  0
LINE
  8
0
 10
72.4005
 20
530.797
 11
72.4005
 21
533.89
  0
LINE
  8
0
 10
72.4005
 20
533.89
 11
92.8235
 21
533.89
  0
LINE
  8
0
 10
92.8235
 20
533.89
 11
92.8235
 21
530.797
  0
LINE
  8
0
 10
92.8235
 20
530.797
 11
113.706
 21
530.797
  0
LINE
  8
0
 10
113.706
 20
530.797
 11
113.706
 21
533.89
  0
LINE
  8
0
 10
113.706
 20
533.89
 11
134.13
 21
533.89
  0
LINE
  8
0
 10
134.13
 20
533.89
 11
134.13
 21
530.797
  0
LINE
  8
0
 10
134.13
 20
530.797
 11
155.012
 21
530.797
  0
LINE
  8
0
 10
155.012
 20
530.797
 11
155.012
 21
533.89
  0
LINE
  8
0
 10
155.012
 20
533.89
 11
175.436
 21
533.89
  0
LINE
  8
0
 10
175.436
 20
533.89
 11
175.436
 21
530.797
  0
LINE
  8
0
 10
175.436
 20
530.797
 11
196.318
 21
530.797
  0
LINE
  8
0
 10
196.318
 20
530.797
 11
196.318
 21
533.89
  0
LINE
  8
0
 10
196.318
 20
533.89
 11
206.53
 21
533.89
  0
LINE
  8
0
 10
206.53
 20
533.89
 11
206.53
 21
539.331
  0
LINE
  8
0
 10
206.53
 20
539.331
 11
203.553
 21
539.331
  0
LINE
  8
0
 10
203.553
 20
539.331
 11
203.553
 21
549.755
  0
LINE
  8
0
 10
203.553
 20
549.755
 11
206.53
 21
549.755
  0
LINE
  8
0
 10
206.53
 20
549.755
 11
206.53
 21
560.638
  0
LINE
  8
0
 10
206.53
 20
560.638
 11
203.553
 21
560.638
  0
LINE
  8
0
 10
203.553
 20
560.638
 11
203.553
 21
571.06
  0
LINE
  8
0
 10
203.553
 20
571.06
 11
206.53
 21
571.06
  0
LINE
  8
0
 10
206.53
 20
571.06
 11
206.53
 21
581.943
  0
LINE
  8
0
 10
206.53
 20
581.943
 11
203.553
 21
581.943
  0
LINE
  8
0
 10
203.553
 20
581.943
 11
203.553
 21
592.367
  0
LINE
  8
0
 10
203.553
 20
592.367
 11
206.53
 21
592.367
  0
LINE
  8
0
 10
206.53
 20
592.367
 11
206.53
 21
603.25
  0
LINE
  8
0
 10
206.53
 20
603.25
 11
203.553
 21
603.25
  0
LINE
  8
0
 10
203.553
 20
603.25
 11
203.553
 21
613.672
  0
LINE
  8
0
 10
203.553
 20
613.672
 11
206.53
 21
613.672
  0
LINE
  8
0
 10
206.53
 20
613.672
 11
206.53
 21
624.555
  0
LINE
  8
0
 10
206.53
 20
624.555
 11
203.553
 21
624.555
  0
LINE
  8
0
 10
203.553
 20
624.555
 11
203.553
 21
634.979
  0
LINE
  8
0
 10
203.553
 20
634.979
 11
206.53
 21
634.979
  0
LINE
  8
0
 10
206.53
 20
634.979
 11
206.53
 21
640.42
  0
LINE
  8
0
 10
206.53
 20
640.42
 11
0
 21
640.42
  0
LINE
  8
0
 10
0
 20
640.42
 11
0
 21
634.979
  0
LINE
  8
0
 10
0
 20
634.979
 11
2.97749
 21
634.979
  0
LINE
  8
0
 10
2.97749
 20
634.979
 11
2.97749
 21
624.555
  0
LINE
  8
0
 10
2.97749
 20
624.555
 11
0
 21
624.555
  0
LINE
  8
0
 10
0
 20
624.555
 11
0
 21
613.672
  0
LINE
  8
0
 10
0
 20
613.672
 11
2.97749
 21
613.672
  0
LINE
  8
0
 10
2.97749
 20
613.672
 11
2.97749
 21
603.25
  0
LINE
  8
0
 10
2.97749
 20
603.25
 11
0
 21
603.25
  0
LINE
  8
0
 10
0
 20
603.25
 11
0
 21
592.367
  0
LINE
  8
0
 10
0
 20
592.367
 11
2.97749
 21
592.367
  0
LINE
  8
0
 10
2.97749
 20
592.367
 11
2.97749
 21
581.943
  0
LINE
  8
0
 10
2.97749
 20
581.943
 11
0
 21
581.943
  0
LINE
  8
0
 10
0
 20
581.943
 11
0
 21
571.06
  0
LINE
  8
0
 10
0
 20
571.06
 11
2.97749
 21
571.06
  0
LINE
  8
0
 10
2.97749
 20
571.06
 11
2.97749
 21
560.638
  0
LINE
  8
0
 10
2.97749
 20
560.638
 11
0
 21
560.638
  0
LINE
  8
0
 10
0
 20
560.638
 11
0
 21
549.755
  0
LINE
  8
0
 10
0
 20
549.755
 11
2.97749
 21
549.755
  0
LINE
  8
0
 10
2.97749
 20
549.755
 11
2.97749
 21
539.331
  0
LINE
  8
0
 10
2.97749
 20
539.331
 11
0
 21
539.331
  0
LINE
  8
0
 10
0
 20
539.331
 11
0
 21
533.89
  0
LINE
  8
0
 10
0
 20
533.89
 11
10.2115
 21
533.89
  0
LINE
  8
0
 10
10.2115
 20
533.89
 11
10.2115
 21
530.797
  0
LINE
  8
0
 10
10.2115
 20
530.797
 11
31.0945
 21
530.797
  0
LINE
  8
0
 10
31.0945
 20
530.797
 11
31.0945
 21
533.89
  0
LINE
  8
0
 10
17.7571
 20
617.832
 11
16.7137
 21
619.455
  0
LINE
  8
0
 10
16.7137
 20
619.455
 11
16.7137
 21
621.385
  0
LINE
  8
0
 10
16.7137
 20
621.385
 11
17.7571
 21
623.008
  0
LINE
  8
0
 10
17.7571
 20
623.008
 11
19.5126
 21
623.81
  0
LINE
  8
0
 10
19.5126
 20
623.81
 11
21.4228
 21
623.535
  0
LINE
  8
0
 10
21.4228
 20
623.535
 11
22.8813
 21
622.272
  0
LINE
  8
0
 10
22.8813
 20
622.272
 11
23.425
 21
620.42
  0
LINE
  8
0
 10
23.425
 20
620.42
 11
22.8813
 21
618.568
  0
LINE
  8
0
 10
22.8813
 20
618.568
 11
21.4228
 21
617.305
  0
LINE
  8
0
 10
21.4228
 20
617.305
 11
19.5126
 21
617.03
  0
LINE
  8
0
 10
19.5126
 20
617.03
 11
17.7571
 21
617.832
  0
LINE
  8
0
 10
184.287
 20
617.832
 11
183.244
 21
619.455
  0
LINE
  8
0
 10
183.244
 20
619.455
 11
183.244
 21
621.385
  0
LINE
  8
0
 10
183.244
 20
621.385
 11
184.287
 21
623.008
  0
LINE
  8
0
 10
184.287
 20
623.008
 11
186.043
 21
623.81
  0
LINE
  8
0
 10
186.043
 20
623.81
 11
187.953
 21
623.535
  0
LINE
  8
0
 10
187.953
 20
623.535
 11
189.411
 21
622.272
  0
LINE
  8
0
 10
189.411
 20
622.272
 11
189.955
 21
620.42
  0
LINE
  8
0
 10
189.955
 20
620.42
 11
189.411
 21
618.568
  0
LINE
  8
0
 10
189.411
 20
618.568
 11
187.953
 21
617.305
  0
LINE
  8
0
 10
187.953
 20
617.305
 11
186.043
 21
617.03
  0
LINE
  8
0
 10
186.043
 20
617.03
 11
184.287
 21
617.832
  0
LINE
  8
0
 10
31.0945
 20
420.21
 11
51.5175
 21
420.21
  0
LINE
  8
0
 10
51.5175
 20
420.21
 11
51.5175
 21
417.117
  0
LINE
  8
0
 10
51.5175
 20
417.117
 11
72.4005
 21
417.117
  0
LINE
  8
0
 10
72.4005
 20
417.117
 11
72.4005
 21
420.21
  0
LINE
  8
0
 10
72.4005
 20
420.21
 11
92.8235
 21
420.21
  0
LINE
  8
0
 10
92.8235
 20
420.21
 11
92.8235
 21
417.117
  0
LINE
  8
0
 10
92.8235
 20
417.117
 11
113.706
 21
417.117
  0
LINE
  8
0
 10
113.706
 20
417.117
 11
113.706
 21
420.21
  0
LINE
  8
0
 10
113.706
 20
420.21
 11
134.13
 21
420.21
  0
LINE
  8
0
 10
134.13
 20
420.21
 11
134.13
 21
417.117
  0
LINE
  8
0
 10
134.13
 20
417.117
 11
155.012
 21
417.117
  0
LINE
  8
0
 10
155.012
 20
417.117
 11
155.012
 21
420.21
  0
LINE
  8
0
 10
155.012
 20
420.21
 11
175.436
 21
420.21
  0
LINE
  8
0
 10
175.436
 20
420.21
 11
175.436
 21
417.117
  0
LINE
  8
0
 10
175.436
 20
417.117
 11
196.318
 21
417.117
  0
LINE
  8
0
 10
196.318
 20
417.117
 11
196.318
 21
420.21
  0
LINE
  8
0
 10
196.318
 20
420.21
 11
206.53
 21
420.21
  0
LINE
  8
0
 10
206.53
 20
420.21
 11
206.53
 21
425.651
  0
LINE
  8
0
 10
206.53
 20
425.651
 11
203.553
 21
425.651
  0
LINE
  8
0
 10
203.553
 20
425.651
 11
203.553
 21
436.074
  0
LINE
  8
0
 10
203.553
 20
436.074
 11
206.53
 21
436.074
  0
LINE
  8
0
 10
206.53
 20
436.074
 11
206.53
 21
446.957
  0
LINE
  8
0
 10
206.53
 20
446.957
 11
203.553
 21
446.957
  0
LINE
  8
0
 10
203.553
 20
446.957
 11
203.553
 21
457.38
  0
LINE
  8
0
 10
203.553
 20
457.38
 11
206.53
 21
457.38
  0
LINE
  8
0
 10
206.53
 20
457.38
 11
206.53
 21
468.263
  0
LINE
  8
0
 10
206.53
 20
468.263
 11
203.553
 21
468.263
  0
LINE
  8
0
 10
203.553
 20
468.263
 11
203.553
 21
478.686
  0
LINE
  8
0
 10
203.553
 20
478.686
 11
206.53
 21
478.686
  0
LINE
  8
0
 10
206.53
 20
478.686
 11
206.53
 21
489.569
  0
LINE
  8
0
 10
206.53
 20
489.569
 11
203.553
 21
489.569
  0
LINE
  8
0
 10
203.553
 20
489.569
 11
203.553
 21
499.992
  0
LINE
  8
0
 10
203.553
 20
499.992
 11
206.53
 21
499.992
  0
LINE
  8
0
 10
206.53
 20
499.992
 11
206.53
 21
510.875
  0
LINE
  8
0
 10
206.53
 20
510.875
 11
203.553
 21
510.875
  0
LINE
  8
0
 10
203.553
 20
510.875
 11
203.553
 21
521.299
  0
LINE
  8
0
 10
203.553
 20
521.299
 11
206.53
 21
521.299
  0
LINE
  8
0
 10
206.53
 20
521.299
 11
206.53
 21
526.74
  0
LINE
  8
0
 10
206.53
 20
526.74
 11
0
 21
526.74
  0
LINE
  8
0
 10
0
 20
526.74
 11
0
 21
521.299
  0
LINE
  8
0
 10
0
 20
521.299
 11
2.97749
 21
521.299
  0
LINE
  8
0
 10
2.97749
 20
521.299
 11
2.97749
 21
510.875
  0
LINE
  8
0
 10
2.97749
 20
510.875
 11
0
 21
510.875
  0
LINE
  8
0
 10
0
 20
510.875
 11
0
 21
499.992
  0
LINE
  8
0
 10
0
 20
499.992
 11
2.97749
 21
499.992
  0
LINE
  8
0
 10
2.97749
 20
499.992
 11
2.97749
 21
489.569
  0
LINE
  8
0
 10
2.97749
 20
489.569
 11
0
 21
489.569
  0
LINE
  8
0
 10
0
 20
489.569
 11
0
 21
478.686
  0
LINE
  8
0
 10
0
 20
478.686
 11
2.97749
 21
478.686
  0
LINE
  8
0
 10
2.97749
 20
478.686
 11
2.97749
 21
468.263
  0
LINE
  8
0
 10
2.97749
 20
468.263
 11
0
 21
468.263
  0
LINE
  8
0
 10
0
 20
468.263
 11
0
 21
457.38
  0
LINE
  8
0
 10
0
 20
457.38
 11
2.97749
 21
457.38
  0
LINE
  8
0
 10
2.97749
 20
457.38
 11
2.97749
 21
446.957
  0
LINE
  8
0
 10
2.97749
 20
446.957
 11
0
 21
446.957
  0
LINE
  8
0
 10
0
 20
446.957
 11
0
 21
436.074
  0
LINE
  8
0
 10
0
 20
436.074
 11
2.97749
 21
436.074
  0
LINE
  8
0
 10
2.97749
 20
436.074
 11
2.97749
 21
425.651
  0
LINE
  8
0
 10
2.97749
 20
425.651
 11
0
 21
425.651
  0
LINE
  8
0
 10
0
 20
425.651
 11
0
 21
420.21
  0
LINE
  8
0
 10
0
 20
420.21
 11
10.2115
 21
420.21
  0
LINE
  8
0
 10
10.2115
 20
420.21
 11
10.2115
 21
417.117
  0
LINE
  8
0
 10
10.2115
 20
417.117
 11
31.0945
 21
417.117
  0
LINE
  8
0
 10
31.0945
 20
417.117
 11
31.0945
 21
420.21
  0
LINE
  8
0
 10
17.7571
 20
504.152
 11
16.7137
 21
505.775
  0
LINE
  8
0
 10
16.7137
 20
505.775
 11
16.7137
 21
507.705
  0
LINE
  8
0
 10
16.7137
 20
507.705
 11
17.7571
 21
509.328
  0
LINE
  8
0
 10
17.7571
 20
509.328
 11
19.5126
 21
510.13
  0
LINE
  8
0
 10
19.5126
 20
510.13
 11
21.4228
 21
509.855
  0
LINE
  8
0
 10
21.4228
 20
509.855
 11
22.8813
 21
508.592
  0
LINE
  8
0
 10
22.8813
 20
508.592
 11
23.425
 21
506.74
  0
LINE
  8
0
 10
23.425
 20
506.74
 11
22.8813
 21
504.888
  0
LINE
  8
0
 10
22.8813
 20
504.888
 11
21.4228
 21
503.625
  0
LINE
  8
0
 10
21.4228
 20
503.625
 11
19.5126
 21
503.35
  0
LINE
  8
0
 10
19.5126
 20
503.35
 11
17.7571
 21
504.152
  0
LINE
  8
0
 10
184.287
 20
504.152
 11
183.244
 21
505.775
  0
LINE
  8
0
 10
183.244
 20
505.775
 11
183.244
 21
507.705
  0
LINE
  8
0
 10
183.244
 20
507.705
 11
184.287
 21
509.328
  0
LINE
  8
0
 10
184.287
 20
509.328
 11
186.043
 21
510.13
  0
LINE
  8
0
 10
186.043
 20
510.13
 11
187.953
 21
509.855
  0
LINE
  8
0
 10
187.953
 20
509.855
 11
189.411
 21
508.592
  0
LINE
  8
0
 10
189.411
 20
508.592
 11
189.955
 21
506.74
  0
LINE
  8
0
 10
189.955
 20
506.74
 11
189.411
 21
504.888
  0
LINE
  8
0
 10
189.411
 20
504.888
 11
187.953
 21
503.625
  0
LINE
  8
0
 10
187.953
 20
503.625
 11
186.043
 21
503.35
  0
LINE
  8
0
 10
186.043
 20
503.35
 11
184.287
 21
504.152
  0
LINE
  8
0
 10
10.4415
 20
2.97749
 11
30.8645
 21
2.97749
  0
LINE
  8
0
 10
30.8645
 20
2.97749
 11
30.8645
 21
0
  0
LINE
  8
0
 10
30.8645
 20
0
 11
51.7475
 21
0
  0
LINE
  8
0
 10
51.7475
 20
0
 11
51.7475
 21
2.97749
  0
LINE
  8
0
 10
51.7475
 20
2.97749
 11
72.1705
 21
2.97749
  0
LINE
  8
0
 10
72.1705
 20
2.97749
 11
72.1705
 21
0
  0
LINE
  8
0
 10
72.1705
 20
0
 11
93.0535
 21
0
  0
LINE
  8
0
 10
93.0535
 20
0
 11
93.0535
 21
2.97749
  0
LINE
  8
0
 10
93.0535
 20
2.97749
 11
113.477
 21
2.97749
  0
LINE
  8
0
 10
113.477
 20
2.97749
 11
113.477
 21
0
  0
LINE
  8
0
 10
113.477
 20
0
 11
134.359
 21
0
  0
LINE
  8
0
 10
134.359
 20
0
 11
134.359
 21
2.97749
  0
LINE
  8
0
 10
134.359
 20
2.97749
 11
154.783
 21
2.97749
  0
LINE
  8
0
 10
154.783
 20
2.97749
 11
154.783
 21
0
  0
LINE
  8
0
 10
154.783
 20
0
 11
175.665
 21
0
  0
LINE
  8
0
 10
175.665
 20
0
 11
175.665
 21
2.97749
  0
LINE
  8
0
 10
175.665
 20
2.97749
 11
196.089
 21
2.97749
  0
LINE
  8
0
 10
196.089
 20
2.97749
 11
196.089
 21
0
  0
LINE
  8
0
 10
196.089
 20
0
 11
206.53
 21
0
  0
LINE
  8
0
 10
206.53
 20
0
 11
206.53
 21
10.4415
  0
LINE
  8
0
 10
206.53
 20
10.4415
 11
203.553
 21
10.4415
  0
LINE
  8
0
 10
203.553
 20
10.4415
 11
203.553
 21
30.8645
  0
LINE
  8
0
 10
203.553
 20
30.8645
 11
206.53
 21
30.8645
  0
LINE
  8
0
 10
206.53
 20
30.8645
 11
206.53
 21
51.7475
  0
LINE
  8
0
 10
206.53
 20
51.7475
 11
203.553
 21
51.7475
  0
LINE
  8
0
 10
203.553
 20
51.7475
 11
203.553
 21
72.1705
  0
LINE
  8
0
 10
203.553
 20
72.1705
 11
206.53
 21
72.1705
  0
LINE
  8
0
 10
206.53
 20
72.1705
 11
206.53
 21
93.0535
  0
LINE
  8
0
 10
206.53
 20
93.0535
 11
203.553
 21
93.0535
  0
LINE
  8
0
 10
203.553
 20
93.0535
 11
203.553
 21
113.477
  0
LINE
  8
0
 10
203.553
 20
113.477
 11
206.53
 21
113.477
  0
LINE
  8
0
 10
206.53
 20
113.477
 11
206.53
 21
134.359
  0
LINE
  8
0
 10
206.53
 20
134.359
 11
203.553
 21
134.359
  0
LINE
  8
0
 10
203.553
 20
134.359
 11
203.553
 21
154.783
  0
LINE
  8
0
 10
203.553
 20
154.783
 11
206.53
 21
154.783
  0
LINE
  8
0
 10
206.53
 20
154.783
 11
206.53
 21
175.665
  0
LINE
  8
0
 10
206.53
 20
175.665
 11
203.553
 21
175.665
  0
LINE
  8
0
 10
203.553
 20
175.665
 11
203.553
 21
196.089
  0
LINE
  8
0
 10
203.553
 20
196.089
 11
206.53
 21
196.089
  0
LINE
  8
0
 10
206.53
 20
196.089
 11
206.53
 21
206.53
  0
LINE
  8
0
 10
206.53
 20
206.53
 11
196.089
 21
206.53
  0
LINE
  8
0
 10
196.089
 20
206.53
 11
196.089
 21
203.553
  0
LINE
  8
0
 10
196.089
 20
203.553
 11
175.665
 21
203.553
  0
LINE
  8
0
 10
175.665
 20
203.553
 11
175.665
 21
206.53
  0
LINE
  8
0
 10
175.665
 20
206.53
 11
154.783
 21
206.53
  0
LINE
  8
0
 10
154.783
 20
206.53
 11
154.783
 21
203.553
  0
LINE
  8
0
 10
154.783
 20
203.553
 11
134.359
 21
203.553
  0
LINE
  8
0
 10
134.359
 20
203.553
 11
134.359
 21
206.53
  0
LINE
  8
0
 10
134.359
 20
206.53
 11
113.477
 21
206.53
  0
LINE
  8
0
 10
113.477
 20
206.53
 11
113.477
 21
203.553
  0
LINE
  8
0
 10
113.477
 20
203.553
 11
93.0535
 21
203.553
  0
LINE
  8
0
 10
93.0535
 20
203.553
 11
93.0535
 21
206.53
  0
LINE
  8
0
 10
93.0535
 20
206.53
 11
72.1705
 21
206.53
  0
LINE
  8
0
 10
72.1705
 20
206.53
 11
72.1705
 21
203.553
  0
LINE
  8
0
 10
72.1705
 20
203.553
 11
51.7475
 21
203.553
  0
LINE
  8
0
 10
51.7475
 20
203.553
 11
51.7475
 21
206.53
  0
LINE
  8
0
 10
51.7475
 20
206.53
 11
30.8645
 21
206.53
  0
LINE
  8
0
 10
30.8645
 20
206.53
 11
30.8645
 21
203.553
  0
LINE
  8
0
 10
30.8645
 20
203.553
 11
10.4415
 21
203.553
  0
LINE
  8
0
 10
10.4415
 20
203.553
 11
10.4415
 21
206.53
  0
LINE
  8
0
 10
10.4415
 20
206.53
 11
0
 21
206.53
  0
LINE
  8
0
 10
0
 20
206.53
 11
0
 21
196.089
  0
LINE
  8
0
 10
0
 20
196.089
 11
2.97749
 21
196.089
  0
LINE
  8
0
 10
2.97749
 20
196.089
 11
2.97749
 21
175.665
  0
LINE
  8
0
 10
2.97749
 20
175.665
 11
0
 21
175.665
  0
LINE
  8
0
 10
0
 20
175.665
 11
0
 21
154.783
  0
LINE
  8
0
 10
0
 20
154.783
 11
2.97749
 21
154.783
  0
LINE
  8
0
 10
2.97749
 20
154.783
 11
2.97749
 21
134.359
  0
LINE
  8
0
 10
2.97749
 20
134.359
 11
0
 21
134.359
  0
LINE
  8
0
 10
0
 20
134.359
 11
0
 21
113.477
  0
LINE
  8
0
 10
0
 20
113.477
 11
2.97749
 21
113.477
  0
LINE
  8
0
 10
2.97749
 20
113.477
 11
2.97749
 21
93.0535
  0
LINE
  8
0
 10
2.97749
 20
93.0535
 11
0
 21
93.0535
  0
LINE
  8
0
 10
0
 20
93.0535
 11
0
 21
72.1705
  0
LINE
  8
0
 10
0
 20
72.1705
 11
2.97749
 21
72.1705
  0
LINE
  8
0
 10
2.97749
 20
72.1705
 11
2.97749
 21
51.7475
  0
LINE
  8
0
 10
2.97749
 20
51.7475
 11
0
 21
51.7475
  0
LINE
  8
0
 10
0
 20
51.7475
 11
0
 21
30.8645
  0
LINE
  8
0
 10
0
 20
30.8645
 11
2.97749
 21
30.8645
  0
LINE
  8
0
 10
2.97749
 20
30.8645
 11
2.97749
 21
10.4415
  0
LINE
  8
0
 10
2.97749
 20
10.4415
 11
0
 21
10.4415
  0
LINE
  8
0
 10
0
 20
10.4415
 11
0
 21
0
  0
LINE
  8
0
 10
0
 20
0
 11
10.4415
 21
0
  0
LINE
  8
0
 10
10.4415
 20
0
 11
10.4415
 21
2.97749
  0
ENDSEC
  0
SECTION
  2
OBJECTS
  0
DICTIONARY
  0
ENDSEC
  0
EOF
